<?xml version="1.0" standalone="no"?>
<!DOCTYPE svg PUBLIC "-//W3C//DTD SVG 20010904//EN"
 "http://www.w3.org/TR/2001/REC-SVG-20010904/DTD/svg10.dtd">
<svg version="1.0" xmlns="http://www.w3.org/2000/svg"
 width="1920.000000pt" height="1080.000000pt" viewBox="0 0 1920.000000 1080.000000"
 preserveAspectRatio="xMidYMid meet">

<g transform="translate(0.000000,1080.000000) scale(0.100000,-0.100000)"
fill="#000000" stroke="none">
<path d="M2990 6565 c-133 -22 -238 -65 -395 -163 -115 -72 -123 -78 -219
-169 -43 -41 -93 -80 -110 -86 -44 -15 -122 -62 -180 -109 -46 -36 -116 -125
-116 -146 0 -5 -9 -17 -20 -27 -11 -10 -20 -25 -20 -34 0 -9 -9 -43 -19 -77
-11 -34 -29 -126 -40 -205 -20 -136 -33 -214 -63 -389 -20 -117 -8 -551 18
-630 10 -31 11 -46 3 -49 -13 -4 -125 -97 -134 -111 -3 -5 -17 -10 -31 -10
-58 0 -195 -104 -295 -223 -136 -162 -306 -499 -354 -700 -24 -103 -42 -349
-38 -502 6 -201 16 -324 28 -360 29 -83 38 -194 25 -282 -19 -120 -1 -348 31
-399 20 -33 21 -43 15 -138 -11 -158 -7 -271 16 -375 11 -53 22 -109 25 -126
10 -63 45 -204 73 -290 61 -192 61 -194 57 -315 -3 -111 -5 -118 -48 -214 -33
-74 -54 -107 -83 -130 -50 -41 -85 -103 -93 -163 -6 -56 -6 -47 -4 -100 l1
-43 39 0 40 0 0 65 c0 78 28 149 65 167 24 10 86 93 86 114 0 5 11 30 25 56
43 80 56 151 54 288 -1 114 -5 136 -39 245 -40 128 -85 311 -121 490 -17 88
-20 133 -17 225 6 140 15 161 66 159 49 -2 141 18 161 34 11 10 38 12 91 9
l75 -4 69 -207 c38 -113 93 -258 123 -322 l55 -116 -27 -64 c-40 -95 -53 -144
-67 -251 -10 -86 -10 -104 5 -152 10 -29 24 -59 32 -66 21 -17 19 -24 -13 -69
-31 -42 -66 -131 -76 -193 -4 -21 -9 -38 -13 -38 -3 0 -23 14 -44 31 -47 37
-115 59 -161 54 -36 -5 -74 -41 -84 -81 -7 -26 5 -49 13 -27 3 8 14 11 30 7
13 -4 35 -1 48 6 51 27 161 -61 114 -91 -7 -4 -18 -5 -23 -1 -23 14 -48 8 -58
-14 -11 -24 -33 -22 -24 2 3 8 2 13 -2 13 -4 -1 -9 -1 -12 1 -37 14 -51 8 -71
-33 -21 -42 -92 -117 -112 -117 -5 0 9 20 32 45 41 44 52 80 30 102 -21 21
-61 -1 -119 -65 -64 -69 -86 -121 -75 -173 6 -28 9 -30 48 -27 41 3 42 4 48
46 8 59 26 75 34 29 4 -19 4 -45 0 -56 -6 -19 -2 -21 35 -21 31 0 46 6 60 23
16 19 22 20 39 10 32 -20 50 -16 83 20 l31 32 -20 -30 c-37 -57 -38 -55 17
-55 49 0 51 1 81 48 l31 47 -5 -47 -5 -48 38 0 c42 0 50 11 50 65 0 75 32 275
56 350 48 150 61 163 134 139 48 -16 58 -16 155 0 117 20 121 19 194 -45 48
-42 102 -59 126 -39 9 7 17 11 18 9 8 -12 27 -78 27 -93 0 -50 63 -106 119
-106 31 0 81 18 81 30 0 3 30 -8 68 -26 61 -30 75 -33 162 -33 52 -1 123 6
157 14 78 18 182 65 231 103 20 16 55 40 78 52 l41 24 23 -22 c68 -63 304 -31
500 68 95 48 141 95 176 178 21 48 47 85 102 141 41 42 91 101 110 131 20 30
38 57 39 59 7 10 47 -38 69 -81 44 -87 81 -293 83 -464 l2 -112 -71 -72 c-38
-39 -70 -73 -70 -75 0 -19 39 3 81 45 27 27 52 50 54 50 8 0 -6 -175 -20 -253
l-7 -37 50 0 c50 0 51 1 58 34 8 45 0 645 -9 671 -8 22 6 -7 34 -70 40 -91 73
-268 91 -492 l11 -143 56 0 56 0 1 73 c0 54 -4 75 -15 84 -9 7 -11 13 -6 13
12 0 15 120 3 120 -5 0 -6 11 -2 25 5 19 2 25 -11 25 -10 0 -13 4 -8 13 14 21
10 58 -5 52 -8 -3 -10 0 -5 7 10 18 11 48 1 48 -5 0 -6 11 -2 24 3 14 1 27 -6
31 -9 6 -9 10 1 16 11 7 10 9 -3 9 -20 0 -24 16 -6 22 7 3 2 13 -12 26 -13 12
-18 22 -11 22 8 0 5 10 -8 27 -13 15 -19 34 -16 45 4 10 1 18 -5 18 -6 0 -8 5
-5 11 4 6 -1 17 -11 25 -11 9 -13 12 -5 8 7 -4 12 -3 10 2 -2 5 -12 30 -23 57
-10 26 -25 47 -32 47 -8 0 -14 4 -14 9 0 5 -3 17 -7 27 -4 12 -3 15 5 10 21
-12 13 12 -10 34 -13 12 -17 20 -9 20 10 0 11 3 2 14 -9 11 -9 15 1 19 8 3 6
6 -6 6 -15 1 -16 4 -7 15 9 11 9 16 0 21 -8 6 -7 10 2 16 11 7 10 9 -4 9 -12
0 -15 4 -11 12 4 7 9 55 10 107 2 53 7 110 12 126 10 33 0 32 153 19 57 -5 83
-3 103 8 26 14 30 13 56 -14 25 -24 36 -28 87 -28 66 0 167 30 252 76 29 16
65 35 80 43 14 8 30 20 34 28 11 19 24 16 30 -6 4 -17 -3 -120 -18 -241 -7
-59 -31 -164 -62 -270 -103 -356 -129 -497 -140 -762 l-6 -148 56 0 c38 0 57
4 58 13 1 6 3 57 4 112 1 55 5 118 8 140 3 22 8 65 11 95 4 30 9 72 12 93 3
20 7 47 9 60 5 37 23 111 56 225 51 176 100 365 95 370 -3 2 0 15 5 29 5 14
11 54 14 89 2 35 9 91 15 124 14 75 11 100 -15 122 -14 12 -24 13 -33 6 -22
-19 -26 1 -5 25 28 30 50 75 59 122 11 58 11 178 1 193 -5 6 -7 35 -3 62 5 41
4 50 -8 50 -12 0 -14 5 -6 25 13 33 -9 87 -43 110 -30 19 -41 43 -28 59 12 15
24 81 26 141 2 46 -1 53 -36 88 l-38 38 15 47 c21 69 18 130 -9 177 -23 40
-23 40 -5 89 11 32 16 65 12 95 -2 25 -6 55 -7 66 -1 11 -9 25 -17 32 -8 7
-10 13 -5 13 15 0 12 104 -4 124 -12 15 -12 16 5 9 16 -6 17 -4 6 9 -7 8 -10
23 -6 32 4 11 1 16 -11 16 -14 0 -15 3 -5 15 10 11 10 18 1 29 -9 11 -9 15 1
19 9 3 5 11 -12 26 -21 17 -22 20 -5 14 20 -6 20 -6 1 15 -11 12 -15 22 -9 22
6 0 8 11 5 25 -2 14 -11 25 -18 25 -17 0 -18 17 -1 23 7 4 6 6 -4 6 -9 1 -19
8 -22 15 -4 11 -1 13 11 10 11 -4 9 0 -6 13 -13 10 -24 26 -26 33 -1 8 -8 25
-14 38 -7 12 -10 27 -7 32 4 6 -1 13 -10 16 -9 4 -14 13 -10 21 3 10 1 13 -9
10 -8 -3 -17 1 -20 9 -4 10 -2 12 6 8 8 -5 9 -2 5 10 -4 10 -7 20 -7 22 0 2
-7 4 -16 4 -13 0 -14 3 -5 14 9 11 10 20 1 35 -14 28 -23 27 -15 -1 5 -21 5
-21 -9 2 -9 15 -11 29 -5 34 5 6 -1 16 -17 27 -23 14 -26 24 -27 71 -1 29 3
60 7 67 6 9 1 20 -15 32 -17 13 -19 19 -9 19 12 0 11 3 -2 11 -10 5 -18 15
-18 20 0 6 5 7 10 4 6 -3 10 -1 10 4 0 6 -6 11 -14 11 -8 0 -16 7 -19 14 -4
11 -1 13 11 10 11 -3 9 1 -5 12 -22 16 -33 41 -13 29 6 -3 10 -1 10 4 0 6 -6
11 -14 11 -14 0 -30 29 -21 38 3 3 5 0 5 -6 0 -7 6 -12 13 -12 6 1 0 11 -14
23 -27 23 -61 75 -40 63 7 -4 9 -1 5 7 -3 8 -15 17 -26 20 -11 3 -17 10 -14
16 4 5 1 13 -6 18 -7 4 -29 26 -47 48 -19 22 -39 39 -43 37 -5 -1 -12 8 -17
21 -5 13 -35 48 -67 78 -31 30 -66 63 -78 73 -146 141 -288 246 -421 310 -16
8 -88 38 -160 66 -71 28 -136 58 -144 65 -12 12 -16 61 -19 241 -3 179 -7 230
-18 241 -8 8 -12 19 -9 24 4 5 6 62 6 126 -1 124 -35 311 -65 358 -8 12 -33
77 -56 146 -23 68 -46 129 -50 134 -4 6 -13 28 -20 50 -18 57 -83 166 -117
194 -15 14 -55 47 -88 76 -73 62 -128 99 -177 120 -45 18 -186 18 -298 0z
m356 -66 c149 -99 262 -224 294 -324 7 -22 19 -53 27 -70 13 -27 12 -28 -1
-10 -53 71 -82 105 -89 105 -5 0 -21 12 -36 28 -70 72 -239 221 -266 234 -17
9 -63 26 -103 38 -115 35 -185 26 -315 -38 -149 -75 -237 -124 -277 -153 -19
-15 -45 -30 -57 -33 -38 -12 -73 -46 -73 -72 0 -14 -6 -24 -14 -24 -7 0 -29
-3 -47 -6 l-34 -7 65 67 c36 37 85 79 110 94 25 14 70 42 100 62 177 115 334
160 546 157 l101 -2 69 -46z m-998 -383 c-15 -14 -52 -32 -82 -40 -33 -10 -81
-36 -118 -64 -77 -58 -118 -134 -143 -260 -19 -99 -25 -126 -54 -232 -11 -41
-25 -111 -32 -155 -8 -64 -16 -85 -40 -112 -35 -40 -37 -31 -15 80 8 40 24
139 36 221 20 142 51 256 87 321 65 116 189 216 313 251 69 19 79 17 48 -10z
m1341 -428 c22 -50 35 -167 22 -187 -17 -26 -33 -5 -61 81 -26 82 -26 87 -9
91 13 3 19 14 19 31 0 37 8 32 29 -16z m-1429 -131 c33 -16 150 -108 150 -118
0 -5 17 -11 38 -14 20 -4 64 -13 98 -21 76 -18 158 -18 215 0 24 8 71 22 104
31 85 24 208 67 222 78 19 14 49 -1 89 -45 l37 -41 -6 -72 c-5 -72 -18 -106
-58 -156 -20 -25 -20 -27 -3 -85 29 -94 25 -221 -10 -319 -32 -91 -51 -123
-111 -181 -33 -33 -43 -52 -48 -87 -8 -55 -63 -177 -115 -254 -40 -59 -92
-102 -145 -122 -35 -14 -157 -13 -217 0 -25 5 -73 13 -107 18 -68 10 -197 66
-227 99 -10 12 -25 48 -32 81 -12 51 -12 75 1 173 40 298 39 277 22 296 -31
34 -66 128 -73 193 -5 50 -2 83 15 148 12 45 19 86 16 90 -6 10 26 107 46 141
11 17 11 24 2 27 -7 2 -15 21 -18 41 -4 20 -8 47 -11 59 -8 41 71 66 126 40z
m1607 -749 c-3 -8 -6 -5 -6 6 -1 11 2 17 5 13 3 -3 4 -12 1 -19z m93 -12 c0
-11 -19 -15 -25 -6 -3 5 1 10 9 10 9 0 16 -2 16 -4z m-60 -11 c0 -3 -10 -15
-22 -27 -17 -17 -20 -18 -15 -4 4 10 7 22 7 27 0 5 7 9 15 9 8 0 15 -2 15 -5z
m-12 -111 c9 -7 30 -14 45 -14 15 0 30 -7 33 -15 12 -31 -15 -280 -39 -360
-36 -124 -187 -356 -279 -432 -26 -21 -60 -49 -77 -62 -16 -13 -27 -29 -25
-36 8 -20 -51 -80 -106 -109 l-49 -26 5 33 c2 17 6 70 9 117 3 70 1 88 -13
103 -26 29 -73 51 -81 38 -4 -6 -18 -7 -34 -3 -27 7 -27 8 54 87 44 44 112
121 150 170 37 50 84 110 104 134 38 48 41 61 23 91 -16 24 1 57 26 52 9 -2
16 1 16 6 0 9 76 110 91 122 3 3 23 31 44 63 20 33 44 68 53 78 16 19 17 19
25 -3 4 -11 15 -27 25 -34z m147 -28 c0 -15 -33 -15 -39 1 -4 10 0 14 17 11
12 -2 22 -7 22 -12z m210 -82 c190 -117 552 -469 612 -594 23 -50 75 -190 69
-190 -2 0 -20 7 -39 15 -66 28 -127 -4 -113 -60 4 -15 24 -31 61 -49 31 -14
60 -26 65 -26 21 0 91 -86 105 -130 8 -25 30 -68 48 -96 79 -120 121 -290 146
-589 4 -55 6 -103 4 -108 -2 -4 -13 -2 -24 3 -10 6 -35 8 -54 4 -37 -7 -55
-28 -55 -63 0 -23 37 -61 59 -61 21 0 81 -57 82 -78 1 -9 3 -38 4 -63 1 -25 5
-50 8 -56 4 -7 -10 -13 -38 -17 -45 -7 -65 -26 -65 -60 0 -27 41 -56 80 -56
24 0 43 -7 55 -20 16 -18 17 -26 6 -74 l-12 -55 -87 -42 c-48 -24 -126 -67
-174 -96 -47 -29 -88 -53 -91 -53 -3 0 -36 -14 -73 -31 -84 -39 -221 -62 -316
-53 -80 8 -83 14 -38 84 69 107 329 310 471 366 21 9 40 23 43 32 13 49 17 76
10 69 -4 -4 -15 -1 -23 7 -21 19 -97 4 -146 -30 -20 -13 -38 -24 -41 -24 -6 0
-109 -69 -184 -122 -24 -18 -85 -72 -133 -120 -49 -48 -93 -88 -97 -88 -10 0
-22 31 -15 38 3 3 5 0 5 -6 0 -7 5 -12 10 -12 15 0 -16 56 -35 63 -8 4 -15 11
-15 17 0 6 5 8 11 4 8 -4 7 0 -1 15 -6 12 -15 19 -20 16 -6 -3 -7 1 -4 9 3 8
-3 19 -14 25 -21 11 -36 61 -19 61 6 0 2 7 -9 15 -10 8 -14 15 -9 15 6 0 11
20 13 44 6 89 17 118 88 215 57 78 68 87 262 211 110 70 127 93 101 139 -13
22 -20 25 -54 22 -50 -4 -79 -19 -145 -75 -29 -25 -67 -52 -84 -60 -79 -37
-202 -187 -257 -311 -13 -32 -23 -45 -27 -35 -3 8 -8 17 -11 20 -4 3 -15 24
-25 48 -11 23 -23 42 -28 42 -4 0 -8 8 -8 19 0 10 -10 29 -23 42 -12 13 -45
67 -71 119 -27 52 -53 97 -57 98 -5 2 -9 10 -9 18 0 8 -4 14 -10 14 -5 0 -10
6 -10 14 0 8 -3 16 -7 18 -5 2 -24 27 -43 55 -19 29 -38 53 -42 53 -5 0 -8 5
-8 11 0 6 -16 29 -35 51 -20 21 -42 56 -51 78 -9 22 -19 40 -23 40 -4 0 -8 7
-8 15 0 23 -35 95 -44 90 -4 -3 -10 -1 -13 3 -9 15 -51 6 -54 -12 -7 -36 77
-211 138 -286 33 -40 60 -76 60 -79 0 -4 19 -29 41 -56 23 -28 64 -95 91 -150
28 -55 60 -113 73 -130 12 -16 36 -57 53 -90 36 -71 75 -115 102 -115 17 0 20
-7 20 -53 0 -29 7 -76 16 -103 26 -80 124 -273 145 -284 24 -14 15 -66 -17
-97 -36 -33 -45 -98 -49 -368 -6 -316 -39 -414 -193 -572 -72 -75 -94 -105
-112 -154 -13 -34 -38 -75 -56 -93 -37 -36 -128 -83 -225 -117 -67 -23 -239
-39 -239 -22 0 5 21 25 48 46 72 56 129 118 146 159 40 95 -68 61 -227 -72
-120 -99 -263 -197 -355 -242 -59 -29 -77 -33 -169 -36 -97 -4 -106 -3 -167
26 -35 17 -67 28 -70 25 -3 -3 -10 6 -15 20 -5 14 -15 28 -20 32 -6 3 -11 21
-11 38 0 18 -4 48 -9 67 -5 19 -13 60 -19 90 -26 128 -35 160 -44 160 -5 0 -7
9 -3 19 3 11 -1 50 -10 86 -23 99 -34 275 -39 585 -2 151 -7 291 -11 310 -9
53 13 455 30 535 10 44 17 151 20 285 6 250 12 276 93 435 46 90 70 124 131
185 200 199 333 300 452 344 94 35 104 34 94 -6 -5 -18 -8 -65 -8 -103 0 -107
29 -144 72 -89 12 15 34 34 50 43 16 9 47 30 70 46 22 17 74 52 115 78 130 84
354 338 430 487 75 148 93 210 100 338 2 28 9 49 24 62 13 12 22 33 22 50 0
15 6 31 13 33 7 3 4 6 -7 6 -15 1 -16 4 -6 16 10 12 10 18 -1 31 -12 14 -9 14
26 -1 22 -9 58 -27 80 -41z m-2405 -124 c-8 -6 -24 -16 -35 -22 -20 -11 -20
-11 -1 11 11 11 26 21 35 21 14 0 14 -2 1 -10z m-60 -34 c0 -2 -8 -10 -17 -17
-16 -13 -17 -12 -4 4 13 16 21 21 21 13z m115 -93 c10 -27 33 -73 51 -104 20
-33 34 -70 34 -89 0 -25 4 -31 15 -26 11 4 14 0 11 -17 -3 -12 -10 -50 -17
-84 l-12 -62 -53 4 c-29 2 -61 8 -71 13 -37 20 -110 25 -144 9 -19 -9 -45 -18
-58 -22 -23 -7 -23 -6 -16 46 17 121 166 355 241 379 1 0 9 -21 19 -47z m-269
-8 c-27 -14 -52 -23 -54 -20 -5 5 76 43 93 44 6 0 -12 -11 -39 -24z m311 -7
c-3 -8 -6 -5 -6 6 -1 11 2 17 5 13 3 -3 4 -12 1 -19z m2024 -32 c-14 -36 -22
-33 -9 5 6 16 12 28 14 26 3 -2 0 -16 -5 -31z m-1983 -41 c-3 -3 -9 2 -12 12
-6 14 -5 15 5 6 7 -7 10 -15 7 -18z m-375 -54 c-4 -3 -9 -15 -10 -26 0 -11 -8
-39 -17 -61 -15 -42 -39 -189 -37 -233 2 -53 42 -66 93 -30 22 16 49 23 106
26 106 6 142 -2 142 -30 0 -32 43 -118 71 -143 13 -12 43 -24 66 -27 89 -11
367 -180 406 -247 16 -27 17 -32 2 -60 -9 -17 -37 -54 -63 -83 -59 -65 -123
-168 -133 -216 -4 -20 -13 -58 -19 -86 -6 -27 -11 -124 -11 -215 0 -91 -4
-205 -8 -253 -5 -68 -3 -105 11 -161 9 -40 17 -90 18 -112 2 -129 -3 -305 -14
-454 -3 -41 -8 -113 -11 -160 -3 -47 -10 -118 -17 -158 -9 -57 -9 -95 1 -180
7 -59 15 -125 17 -147 l5 -40 -21 38 c-20 36 -45 56 -56 44 -3 -3 7 -24 21
-47 43 -68 64 -124 105 -289 40 -156 47 -201 32 -201 -4 0 -23 11 -42 25 -64
47 -110 52 -246 23 -65 -13 -89 -7 -139 38 -22 20 -34 33 -28 29 9 -4 11 -1 7
9 -3 9 -12 16 -20 16 -17 0 -18 17 -1 23 7 3 4 6 -6 6 -12 1 -15 5 -11 13 5 7
9 19 10 28 11 100 17 132 29 176 8 28 27 68 41 90 28 40 47 101 34 106 -4 2
-11 14 -15 27 -5 16 -4 21 4 17 6 -4 11 -3 11 2 0 5 -10 12 -22 16 -17 4 -20
8 -10 15 11 7 11 9 -2 14 -9 4 -16 11 -16 17 0 6 6 8 13 5 6 -3 2 2 -10 11
-22 16 -33 42 -13 29 5 -3 7 0 4 8 -3 8 -15 18 -27 21 -17 5 -19 8 -9 15 11 7
11 9 -2 14 -9 4 -16 11 -16 17 0 6 5 8 12 4 8 -5 9 -2 4 12 -5 10 -11 27 -13
37 -3 9 -11 17 -18 17 -7 0 -15 7 -18 14 -4 11 -1 13 11 10 11 -3 9 1 -5 12
-22 16 -33 41 -13 29 18 -11 10 11 -10 30 -11 10 -20 23 -19 29 0 6 3 6 6 -1
2 -7 9 -13 14 -13 4 0 6 7 3 15 -4 8 -12 15 -20 15 -17 0 -18 17 -1 23 7 3 4
6 -7 6 -15 1 -16 4 -6 16 10 12 10 15 -4 15 -9 0 -16 5 -16 11 0 5 5 7 10 4 6
-3 10 -1 10 4 0 6 -7 11 -15 11 -18 0 -20 17 -3 22 8 3 5 11 -10 23 -23 20
-31 42 -10 29 8 -5 9 -2 5 10 -4 10 -7 22 -7 27 0 5 -7 9 -15 9 -18 0 -20 16
-2 23 7 3 4 6 -7 6 -15 1 -16 4 -6 16 10 12 10 15 -4 15 -9 0 -16 5 -16 11 0
5 5 7 10 4 18 -11 11 8 -12 32 -21 22 -21 24 -3 17 20 -7 20 -7 1 14 -11 12
-15 22 -9 22 6 0 8 11 5 25 -2 14 -11 25 -20 25 -12 0 -13 3 -4 12 17 17 15
28 -4 28 -13 0 -14 3 -5 14 9 11 8 15 -5 20 -14 5 -14 9 -3 22 10 12 10 20 1
34 -6 11 -9 26 -6 35 4 10 0 15 -10 15 -19 0 -21 16 -3 23 6 3 3 6 -8 6 -15 1
-16 4 -7 13 9 9 8 16 -5 30 -16 18 -16 19 3 13 18 -6 18 -6 2 7 -11 9 -15 22
-11 36 4 16 1 22 -12 22 -15 0 -15 3 -5 15 11 13 10 18 -6 30 -15 11 -16 15
-4 15 11 0 10 3 -4 11 -14 9 -15 13 -5 19 10 7 10 11 0 24 -10 11 -10 16 -2
16 8 0 9 6 3 18 -5 9 -8 34 -7 55 1 25 -3 37 -12 37 -14 0 -17 12 -6 23 3 4 7
25 8 47 2 29 -2 40 -12 40 -8 0 -11 5 -7 12 4 6 8 61 10 122 4 169 10 203 49
306 37 97 62 145 102 193 13 16 23 39 23 51 0 12 6 28 13 35 10 11 9 13 -4 8
-9 -3 -21 3 -28 15 -9 15 -15 17 -26 8 -8 -6 -18 -9 -23 -6 -27 16 -103 -110
-168 -281 -45 -117 -45 -119 -51 -273 -5 -135 5 -297 30 -495 2 -17 -6 -21
-60 -27 -38 -4 -91 -21 -140 -43 -43 -21 -90 -38 -105 -40 -26 -3 -26 -2 -26
71 0 41 4 74 9 74 17 0 9 30 -18 73 -47 74 -43 185 10 244 24 26 15 43 -13 25
-17 -10 -19 -7 -26 36 -4 26 -1 146 6 267 13 234 27 316 81 460 35 95 53 129
90 172 15 18 46 71 68 118 41 89 107 179 122 169 5 -3 55 39 112 93 92 88 102
96 105 74 2 -13 0 -26 -5 -30z m-143 16 c0 -2 -17 -19 -37 -38 l-38 -34 34 38
c33 34 41 42 41 34z m1335 -37 c-3 -5 -12 -10 -18 -10 -7 0 -6 4 3 10 19 12
23 12 15 0z m1035 -130 c-11 -16 -26 -33 -32 -36 -7 -4 1 9 16 29 34 44 46 50
16 7z m-595 -150 c8 -16 18 -50 21 -74 6 -38 4 -46 -15 -56 -12 -6 -34 -13
-49 -15 -39 -5 -176 -82 -263 -147 -41 -31 -138 -118 -215 -195 -138 -135
-143 -141 -202 -258 -33 -66 -67 -147 -75 -180 -15 -59 -32 -268 -27 -335 6
-83 -4 -210 -20 -267 -25 -94 -32 -518 -16 -978 12 -333 16 -363 85 -674 12
-52 21 -104 21 -115 0 -20 -1 -20 -16 2 -12 18 -19 20 -29 12 -21 -18 -35 -3
-35 37 0 20 -6 41 -13 47 -8 6 -27 64 -42 129 -16 64 -31 117 -35 117 -3 0 -6
10 -6 23 0 12 -3 42 -6 67 -50 330 -51 348 -35 449 14 86 21 188 35 506 8 195
4 320 -12 382 -9 34 -17 72 -17 85 -4 82 16 341 32 433 11 61 24 134 29 163
11 62 37 109 97 171 23 25 56 71 73 102 32 60 194 223 299 302 29 22 86 70
125 107 75 71 249 190 278 190 10 0 24 -13 33 -30z m-1186 -66 c7 -10 -3 -2
-22 19 -22 23 -33 45 -30 54 4 11 11 5 22 -20 9 -19 22 -43 30 -53z m-73 11
c4 -8 10 -15 15 -15 5 0 23 -16 40 -34 33 -38 145 -115 212 -147 113 -53 297
-174 297 -195 0 -39 -72 -41 -98 -2 -18 27 -129 118 -144 118 -5 0 -35 17 -66
39 -79 53 -128 76 -192 91 -65 15 -87 31 -111 85 -27 59 -25 75 11 75 18 0 33
-6 36 -15z m1654 -19 c0 -2 -8 -10 -17 -17 -16 -13 -17 -12 -4 4 13 16 21 21
21 13z m-1509 -63 c13 -17 13 -17 -6 -3 -11 8 -22 16 -24 17 -2 2 0 3 6 3 6 0
17 -8 24 -17z m-680 -1479 c18 -75 54 -238 65 -293 7 -37 10 -36 -94 -15 -20
4 -38 2 -47 -6 -20 -17 -19 -1 2 22 9 10 13 21 10 24 -14 14 -39 -8 -54 -46
-16 -40 -17 -40 -67 -39 -67 1 -97 10 -110 34 -6 10 -16 25 -23 32 -8 9 -11
41 -10 91 4 143 63 212 207 243 30 7 62 16 70 20 26 15 35 4 51 -67z m-356 36
c-3 -5 -12 -10 -18 -10 -7 0 -6 4 3 10 19 12 23 12 15 0z m4325 -275 c0 -5 -5
-3 -10 5 -5 8 -10 20 -10 25 0 6 5 3 10 -5 5 -8 10 -19 10 -25z m-106 -48 c20
-30 39 -182 34 -271 -3 -67 -6 -75 -38 -107 -19 -19 -48 -44 -64 -54 -16 -11
-41 -28 -55 -37 -70 -47 -193 -98 -235 -98 -29 0 -28 2 29 35 34 19 68 32 78
29 12 -4 17 0 17 16 0 27 -27 37 -48 17 -15 -15 -17 -14 -29 15 -13 30 -15 30
-59 24 -31 -4 -70 -22 -122 -56 -84 -55 -107 -59 -202 -36 -69 17 -170 62
-170 75 0 6 -10 19 -22 31 -14 13 -17 20 -8 20 9 0 7 5 -6 15 -12 9 -14 14 -6
15 10 0 9 4 -3 16 -12 12 -13 19 -4 30 9 11 8 14 -4 14 -19 0 -28 35 -17 65 9
23 11 24 142 23 213 -2 342 33 518 140 41 26 109 63 150 83 80 40 96 39 124
-4z m-906 -858 c4 -55 6 -102 4 -104 -6 -6 -52 51 -52 65 0 6 -5 8 -10 5 -17
-11 -22 21 -9 66 7 24 14 62 16 84 2 22 5 56 7 75 2 19 4 46 6 60 3 34 28
-129 38 -251z m-2026 -569 c-6 -42 -19 -38 -14 5 2 19 7 33 11 30 4 -2 6 -18
3 -35z m124 -47 c-10 -10 -19 5 -10 18 6 11 8 11 12 0 2 -7 1 -15 -2 -18z
m-1071 -343 c-36 -57 -42 -45 -8 15 15 27 28 44 30 38 3 -7 -8 -30 -22 -53z
m132 34 c-3 -3 -12 -4 -19 -1 -8 3 -5 6 6 6 11 1 17 -2 13 -5z m-187 -98 c0
-3 -4 -8 -10 -11 -5 -3 -10 -1 -10 4 0 6 5 11 10 11 6 0 10 -2 10 -4z"/>
<path d="M2180 5408 c0 -8 11 -25 25 -38 18 -17 25 -34 25 -59 0 -20 10 -57
22 -83 21 -45 25 -48 86 -64 46 -13 61 -21 57 -31 -3 -8 -5 -39 -5 -69 0 -52
-1 -54 -33 -68 -19 -7 -44 -30 -57 -51 -20 -33 -22 -43 -14 -93 8 -52 12 -58
49 -79 22 -13 46 -23 53 -23 25 0 11 20 -27 39 -44 23 -58 62 -41 120 14 49
29 63 61 56 30 -7 30 -5 30 88 0 25 72 135 99 152 5 3 7 12 4 19 -3 7 2 19 10
26 10 8 14 21 10 36 -3 13 1 37 10 55 20 41 20 41 -6 37 -13 -2 -29 -15 -36
-30 -15 -33 -24 -33 -156 -16 -86 11 -93 14 -128 51 -21 21 -38 32 -38 25z
m172 -115 c21 -19 24 -62 6 -86 -10 -13 -20 -15 -41 -9 l-28 7 21 25 c14 16
20 34 18 52 -5 32 -1 34 24 11z m76 -18 c23 -51 9 -95 -29 -95 -16 0 -17 4 -7
30 6 17 8 44 4 60 -7 38 16 41 32 5z m70 -13 c3 -31 -11 -62 -28 -62 -4 0 -7
10 -7 23 1 12 -2 35 -6 50 -7 26 -5 28 15 25 18 -2 24 -10 26 -36z"/>
<path d="M2608 5363 c-13 -3 -18 -15 -18 -42 0 -55 21 -78 80 -86 41 -6 58
-15 94 -51 36 -35 52 -44 79 -44 70 0 147 43 147 81 0 10 5 21 11 25 6 3 9 19
7 35 -3 21 -1 28 11 26 22 -3 29 14 11 24 -8 4 -40 13 -70 19 -58 13 -54 13
-205 -43 -22 -8 -60 -18 -84 -22 l-44 -7 6 46 c4 25 3 45 -1 45 -4 -1 -15 -3
-24 -6z m355 -55 c17 -22 18 -31 8 -61 -7 -20 -18 -40 -26 -47 -11 -9 -12 -4
-8 27 4 32 0 45 -21 70 -24 28 -25 32 -9 36 27 7 35 3 56 -25z m-73 -20 c20
-22 26 -61 14 -93 -8 -20 -48 -37 -68 -29 -12 5 -11 9 5 25 23 23 24 44 5 81
-23 43 8 54 44 16z"/>
<path d="M2650 5167 c0 -8 9 -22 20 -32 31 -28 53 -99 48 -150 -6 -51 -12 -49
75 -23 23 7 41 8 46 2 5 -5 12 -39 16 -75 l7 -66 -47 -27 c-36 -22 -62 -29
-113 -31 -81 -3 -81 -3 -62 -15 30 -19 123 -11 176 15 68 34 75 49 65 135 -5
39 -15 77 -21 85 -12 15 -57 11 -92 -7 -15 -7 -18 -4 -18 17 0 50 -22 113 -52
149 -31 37 -48 46 -48 23z"/>
<path d="M2248 4674 c-23 -20 -44 -40 -46 -45 -8 -20 29 -7 60 21 18 17 41 33
50 36 24 7 23 24 -1 24 -11 0 -39 -16 -63 -36z"/>
<path d="M2760 4660 c0 -7 10 -28 22 -48 12 -20 24 -60 27 -94 7 -71 26 -73
26 -2 0 34 -8 66 -25 99 -24 47 -50 70 -50 45z"/>
<path d="M2446 4644 c-3 -9 -6 -34 -6 -56 0 -60 24 -43 28 20 3 50 -9 70 -22
36z"/>
<path d="M2250 4551 c0 -4 24 -19 53 -31 45 -20 73 -24 202 -27 136 -3 148 -2
131 12 -15 11 -47 15 -138 15 -94 0 -127 4 -168 20 -55 22 -80 25 -80 11z"/>
<path d="M3645 2785 c-82 -51 -157 -66 -316 -66 l-147 1 -11 -45 c-6 -24 -11
-73 -11 -110 0 -63 1 -65 23 -60 21 6 24 3 23 -27 0 -18 4 -118 8 -222 l9
-189 98 7 c102 7 229 30 260 47 13 6 19 6 19 -1 0 -21 20 -8 74 48 41 41 60
71 71 107 32 113 27 324 -9 364 -10 11 -16 36 -16 69 0 52 -13 102 -27 102 -5
0 -26 -11 -48 -25z m45 -64 c0 -71 -24 -90 -175 -140 -130 -43 -226 -59 -290
-47 l-37 7 6 52 c14 106 1 97 149 97 139 0 244 22 297 61 41 30 50 24 50 -30z
m30 -196 c13 -72 15 -107 8 -147 -17 -95 -85 -218 -119 -218 -6 0 -8 7 -5 16
4 11 1 14 -12 12 -9 -2 -18 -13 -20 -25 -3 -18 -15 -24 -70 -37 -37 -8 -108
-18 -158 -22 l-91 -7 -7 144 c-4 79 -9 170 -13 202 l-6 57 46 0 c52 0 161 21
226 45 24 8 46 13 48 11 2 -2 -3 -22 -12 -44 -20 -50 -52 -72 -104 -72 -52 0
-86 -16 -100 -47 -16 -35 3 -56 45 -51 l33 4 -17 -29 c-9 -16 -32 -37 -49 -49
-37 -22 -39 -27 -19 -53 9 -13 30 -20 70 -23 57 -5 57 -5 101 42 40 41 45 44
45 23 0 -47 52 -64 85 -27 13 14 16 28 11 57 -3 21 -8 47 -9 58 -2 11 -11 21
-20 23 -14 3 -13 8 4 50 11 26 24 55 30 65 13 23 -14 87 -37 87 -9 0 8 13 37
28 30 16 56 28 58 26 2 -2 11 -46 21 -99z m-117 -32 c-6 -45 -33 -106 -49
-110 -6 -2 -22 5 -35 16 l-24 19 25 24 c14 12 32 38 39 56 8 19 21 32 32 32
15 0 17 -6 12 -37z m-123 -98 c10 -12 10 -15 -3 -15 -9 0 -18 4 -21 9 -4 5
-19 3 -36 -6 -16 -8 -40 -13 -52 -11 -21 3 -21 4 -4 21 22 22 98 23 116 2z
m99 -54 c23 -22 31 -38 31 -64 0 -21 -6 -37 -15 -40 -18 -8 -21 -3 -29 56 -4
26 -11 47 -16 47 -4 0 -10 7 -14 15 -9 23 9 18 43 -14z m-89 -3 c0 -6 -21 -31
-46 -55 -25 -25 -44 -47 -41 -50 12 -11 47 10 81 47 20 22 36 36 36 31 0 -15
-74 -90 -96 -96 -14 -3 -28 1 -38 10 -18 18 -21 35 -6 35 5 0 21 20 36 45 19
34 32 45 50 45 13 0 24 -5 24 -12z m206 -106 c-17 -16 -18 -16 -5 5 7 12 15
20 18 17 3 -2 -3 -12 -13 -22z"/>
<path d="M4357 763 c-2 -4 -10 -26 -17 -48 -7 -22 -28 -70 -47 -107 -24 -50
-29 -68 -19 -68 30 0 120 200 99 221 -6 6 -13 7 -16 2z"/>
<path d="M4640 675 c0 -15 18 -40 24 -34 3 3 -1 14 -9 25 -8 10 -14 15 -15 9z"/>
<path d="M2559 256 c-2 -3 -17 -6 -33 -9 -27 -3 -30 -8 -46 -78 -10 -41 -20
-95 -23 -121 l-5 -48 43 0 42 0 7 62 c3 34 15 79 26 100 11 21 20 47 20 57 0
18 -23 45 -31 37z"/>
<path d="M2690 197 c-27 -13 -35 -39 -45 -132 l-7 -65 39 0 40 0 12 81 c7 44
14 86 17 92 8 21 -30 37 -56 24z"/>
</g>
</svg>
