<?xml version="1.0" standalone="no"?>
<!DOCTYPE svg PUBLIC "-//W3C//DTD SVG 20010904//EN"
 "http://www.w3.org/TR/2001/REC-SVG-20010904/DTD/svg10.dtd">
<svg version="1.0" xmlns="http://www.w3.org/2000/svg"
 width="1920.000000pt" height="1080.000000pt" viewBox="0 0 1920.000000 1080.000000"
 preserveAspectRatio="xMidYMid meet">

<g transform="translate(0.000000,1080.000000) scale(0.100000,-0.100000)"
fill="#000000" stroke="none">
<path d="M7959 10779 c-50 -94 -86 -291 -75 -414 18 -201 112 -410 244 -538
120 -115 260 -193 424 -234 91 -22 115 -25 213 -19 140 8 145 9 240 41 190 63
321 160 441 325 120 166 177 418 140 626 -17 99 -62 234 -78 234 -6 0 -7 -8
-3 -17 88 -217 98 -410 33 -613 -49 -153 -117 -253 -260 -384 -58 -52 -215
-143 -261 -150 -7 -1 -16 -4 -22 -7 -36 -22 -134 -34 -265 -33 -130 1 -154 3
-230 28 -134 44 -213 88 -319 179 -97 83 -161 177 -233 342 -39 91 -58 291
-39 415 7 41 25 112 40 158 29 82 32 101 10 61z"/>
<path d="M8792 10741 c-17 -32 -32 -66 -32 -75 0 -12 -9 -16 -34 -16 -72 0
-141 -80 -132 -153 16 -137 202 -176 259 -54 9 19 17 40 17 46 0 6 15 11 34
11 19 0 56 4 83 9 26 6 84 15 127 21 44 7 85 14 93 17 7 3 13 -2 13 -11 0 -9
6 -19 14 -22 18 -7 126 71 126 91 0 8 4 15 9 15 6 0 16 12 23 28 25 51 110 35
93 -18 -4 -13 -18 -23 -36 -27 -37 -7 -42 -43 -5 -43 27 0 56 -24 56 -46 0
-21 -37 -54 -60 -54 -21 0 -60 33 -60 50 0 6 -9 10 -20 10 -50 0 -2 -84 54
-94 42 -8 100 13 115 42 16 30 13 74 -5 101 -12 17 -13 26 -5 34 18 18 13 71
-9 95 -30 32 -108 31 -138 -1 -12 -13 -22 -31 -22 -41 0 -15 -6 -16 -47 -11
-27 4 -55 9 -64 11 -21 6 -43 -21 -36 -46 6 -25 -9 -29 -228 -60 -44 -7 -86
-14 -92 -16 -7 -2 -19 11 -27 30 -7 18 -28 44 -46 58 l-32 25 30 35 c17 19 34
46 37 61 4 15 11 30 16 33 17 10 9 24 -14 24 -17 0 -30 -14 -55 -59z"/>
<path d="M7991 10573 c-29 -36 -35 -66 -22 -106 14 -42 47 -60 100 -55 34 3
41 1 41 -14 0 -24 -35 -58 -60 -58 -11 0 -27 11 -36 25 -21 32 -44 32 -44 2 0
-50 74 -81 127 -53 56 28 82 152 49 231 -17 41 -42 55 -95 55 -31 0 -44 -6
-60 -27z m107 -25 c7 -7 12 -26 12 -43 0 -38 -16 -55 -50 -55 -34 0 -50 17
-50 55 0 38 16 55 50 55 14 0 31 -5 38 -12z"/>
<path d="M9373 10273 c-35 -48 -63 -97 -63 -110 0 -21 4 -23 60 -23 l60 0 0
-36 c0 -31 3 -35 23 -32 17 2 23 11 25 36 2 24 8 32 23 32 12 0 19 7 19 20 0
13 -7 20 -20 20 -19 0 -20 7 -20 90 0 87 -1 90 -22 90 -17 0 -39 -23 -85 -87z
m57 -43 l0 -50 -35 0 c-19 0 -35 3 -35 6 0 7 62 94 67 94 2 0 3 -22 3 -50z"/>
<path d="M8085 10185 c-28 -27 -32 -62 -11 -90 12 -17 11 -22 -6 -46 -27 -37
-18 -92 20 -117 39 -26 105 -22 136 7 33 31 36 91 7 120 -17 17 -18 21 -5 32
22 18 18 75 -8 99 -32 30 -101 28 -133 -5z m103 -27 c18 -18 14 -36 -12 -53
-19 -13 -29 -14 -45 -5 -20 10 -29 49 -14 63 11 11 58 8 71 -5z m6 -124 c9 -8
16 -24 16 -34 0 -21 -36 -50 -62 -50 -39 0 -64 60 -36 88 17 17 64 15 82 -4z"/>
<path d="M9095 10008 c-3 -29 -8 -65 -11 -80 -5 -25 -2 -28 20 -28 13 0 28 5
31 10 12 19 63 11 79 -12 21 -30 20 -54 -4 -78 -27 -27 -56 -25 -84 5 -24 25
-56 34 -56 14 0 -48 69 -85 129 -69 47 12 71 46 71 98 0 62 -52 102 -116 89
-23 -4 -25 -2 -22 27 3 31 4 31 66 34 54 3 62 6 62 22 0 18 -7 20 -79 20 l-79
0 -7 -52z"/>
<path d="M8320 10010 c0 -18 7 -20 75 -20 41 0 75 -3 75 -6 0 -3 -9 -19 -20
-34 -25 -35 -76 -145 -84 -182 -6 -25 -3 -28 18 -28 20 0 25 7 35 46 14 54 41
111 82 171 48 69 44 73 -76 73 -98 0 -105 -1 -105 -20z"/>
<path d="M8737 9899 c-42 -25 -67 -133 -48 -207 14 -52 49 -77 105 -76 55 2
86 38 86 100 0 70 -58 111 -123 86 -28 -11 -29 -10 -22 16 10 39 24 52 56 52
18 0 32 -7 39 -20 12 -23 50 -27 50 -6 0 7 -9 25 -21 40 -16 21 -29 26 -62 26
-23 0 -50 -5 -60 -11z m85 -146 c22 -20 23 -51 2 -81 -19 -27 -48 -28 -74 -2
-53 53 16 134 72 83z"/>
<path d="M0 6133 l0 -2803 2221 0 c2111 0 2221 -1 2214 -18 -4 -9 -12 -29 -17
-44 l-10 -28 -981 0 c-1489 0 -3427 -12 -3427 -22 0 -4 988 -8 2196 -8 2086 0
2195 -1 2190 -17 -44 -142 -88 -372 -91 -473 -1 -52 -7 -176 -13 -275 -15
-246 -14 -426 3 -580 8 -71 12 -159 9 -195 -6 -56 -2 -78 24 -155 55 -167 79
-456 43 -524 -19 -34 -7 -445 16 -571 4 -25 25 -75 46 -112 21 -37 36 -72 33
-77 -4 -5 -7 -49 -7 -98 -1 -48 -5 -98 -10 -110 -8 -23 -7 -23 65 -23 81 0 86
4 86 77 0 18 8 48 17 67 l16 36 76 -2 c138 -2 218 15 279 60 29 21 38 23 58
13 14 -6 47 -11 74 -11 55 0 58 -5 39 -59 -19 -54 -1 -48 22 7 20 48 24 52 56
52 18 0 35 -6 37 -12 2 -7 19 -60 37 -118 l34 -105 80 -3 c95 -4 148 4 142 21
-2 7 -12 11 -21 11 -17 -2 -23 32 -6 38 15 5 -11 57 -32 64 -10 3 -18 12 -18
21 0 10 6 13 16 9 13 -5 15 -2 9 11 -4 10 -10 31 -13 46 -3 22 -9 28 -23 24
-14 -4 -19 0 -19 14 0 10 5 19 10 19 6 0 10 5 10 11 0 6 -9 9 -20 6 -13 -3
-20 0 -20 9 0 8 5 14 10 14 6 0 10 7 10 15 0 8 -9 15 -20 15 -12 0 -20 7 -20
16 0 10 6 14 15 10 22 -8 18 9 -11 43 -22 27 -24 32 -9 37 14 6 14 9 -6 30
-19 20 -20 26 -8 40 11 13 11 18 2 21 -7 3 -13 20 -13 39 0 26 -3 32 -15 28
-17 -7 -19 8 -6 34 15 29 35 102 29 108 -3 3 -16 -16 -29 -41 -13 -26 -25 -41
-27 -35 -2 6 1 17 7 23 16 16 14 24 -10 30 -17 5 -20 11 -15 29 18 55 18 69 2
87 -12 13 -14 27 -10 51 6 30 5 32 -15 25 -15 -5 -21 -2 -21 10 0 8 7 18 15
21 8 4 12 10 9 16 -3 5 -12 7 -20 4 -9 -3 -14 1 -14 13 0 11 6 21 13 24 8 3 4
13 -12 31 -14 14 -21 29 -18 33 4 3 7 1 7 -5 0 -7 7 -12 15 -12 23 0 18 18
-10 36 -24 16 -34 44 -16 44 4 0 6 12 3 26 -3 16 -9 23 -18 20 -9 -3 -14 2
-14 14 0 11 5 20 10 20 18 0 11 29 -10 40 -25 13 -27 42 -2 34 14 -5 14 -3 -2
10 -11 9 -23 16 -28 16 -4 0 -8 5 -8 10 0 6 7 10 15 10 19 0 19 10 -1 39 -13
18 -14 25 -4 31 9 6 9 14 -2 36 -14 31 -17 111 -4 132 4 7 0 15 -11 19 -28 10
-34 26 -18 49 10 16 11 24 2 33 -8 8 -8 14 0 22 9 9 9 16 0 31 -10 15 -9 20 2
27 8 5 11 16 7 26 -5 14 -9 15 -21 5 -12 -10 -15 -9 -15 7 0 10 5 24 12 31 8
8 9 15 2 22 -8 8 -8 25 -1 56 8 35 8 51 -2 66 -10 16 -10 22 -1 28 8 5 9 13 4
21 -9 16 -12 59 -3 64 3 2 6 43 7 91 1 47 5 91 10 98 5 6 9 37 9 68 0 32 5 63
10 70 6 7 23 47 38 88 15 41 34 92 42 114 36 100 101 215 154 273 27 30 38 53
44 89 4 27 12 55 17 62 15 18 2 27 -17 12 -12 -10 -16 -9 -22 6 -4 11 -15 28
-26 39 -18 19 -19 20 -32 1 -10 -13 -21 -17 -38 -13 -19 5 -31 -3 -70 -50 -65
-77 -153 -235 -189 -340 -16 -49 -38 -106 -48 -128 -39 -86 -67 -183 -69 -241
-3 -67 -5 -81 -15 -105 -9 -22 1 -431 14 -554 6 -55 15 -149 20 -210 11 -132
19 -176 33 -194 18 -21 -19 -41 -76 -41 -87 0 -266 -58 -361 -118 -26 -16 -58
-26 -91 -28 l-52 -3 0 102 c1 56 -3 112 -7 125 -6 18 -4 22 12 22 11 0 22 7
25 15 6 13 -40 112 -68 145 -6 8 -20 41 -30 74 -31 103 1 252 69 315 14 14 26
31 26 38 0 22 -29 27 -51 7 -15 -13 -22 -15 -31 -6 -18 18 -21 260 -7 472 6
102 13 239 15 305 2 101 8 145 39 265 38 150 62 226 77 247 5 6 21 13 34 15
30 4 33 22 5 26 -20 3 -20 7 1 65 9 22 16 27 44 27 30 0 36 5 51 38 67 155
160 323 230 413 88 115 358 393 420 432 23 15 44 31 48 37 12 19 25 10 25 -18
0 -15 -11 -48 -25 -73 -13 -26 -27 -60 -29 -75 -3 -16 -11 -54 -17 -84 -6 -30
-15 -73 -19 -95 -4 -22 -13 -41 -20 -43 -12 -4 -60 -54 -60 -62 0 -3 14 -14
30 -23 34 -20 39 -55 18 -114 -14 -38 -8 -49 20 -34 16 8 24 7 36 -4 8 -8 22
-15 31 -15 13 0 16 -6 11 -22 -3 -13 -6 -33 -6 -45 0 -13 -9 -32 -21 -44 -15
-15 -21 -37 -25 -86 -2 -36 -7 -70 -10 -74 -3 -5 22 -9 55 -9 l61 0 0 83 c0
45 6 105 14 133 17 63 72 141 106 149 44 10 290 14 314 5 17 -6 25 -19 30 -51
13 -80 63 -182 115 -233 45 -44 54 -49 103 -51 109 -5 157 -25 354 -151 73
-46 136 -84 140 -84 5 -1 25 -13 45 -28 20 -15 59 -44 87 -65 28 -21 68 -61
88 -88 35 -47 36 -53 26 -87 -13 -43 -72 -125 -146 -202 -96 -100 -201 -280
-215 -371 -6 -33 -13 -65 -18 -72 -18 -30 -26 -135 -32 -452 -4 -187 -8 -341
-9 -343 -1 -2 -136 -3 -299 -2 -164 1 -304 1 -310 1 -27 -2 -290 -435 -281
-462 2 -7 39 50 82 127 43 76 107 181 143 232 l64 92 289 0 c159 0 291 -4 294
-9 3 -4 6 -55 7 -112 1 -72 9 -135 26 -204 22 -89 33 -200 34 -345 2 -189 -4
-422 -12 -455 -4 -22 -10 -80 -13 -130 -3 -50 -7 -105 -10 -123 l-5 -32 69 0
c38 0 71 4 74 9 9 14 27 276 34 481 11 366 3 549 -28 625 -23 55 -32 185 -20
285 6 56 11 154 11 217 -1 173 18 306 99 708 14 68 57 149 108 204 23 25 53
57 65 71 48 51 85 107 125 185 37 75 53 93 224 251 220 206 249 231 310 272
26 18 96 78 155 133 146 137 282 233 375 265 102 35 109 37 146 36 18 0 32 4
32 11 0 6 9 2 20 -9 22 -21 50 -116 50 -168 0 -29 -5 -35 -37 -49 -45 -19 -93
-31 -111 -28 -6 1 -38 -13 -70 -32 -31 -18 -79 -44 -107 -57 -108 -51 -270
-169 -420 -305 -305 -275 -474 -461 -515 -565 -7 -19 -22 -46 -32 -59 -10 -13
-18 -28 -18 -34 0 -6 -22 -56 -50 -112 -79 -163 -106 -282 -116 -510 -4 -104
-6 -212 -4 -240 12 -179 -10 -433 -44 -516 -14 -33 -26 -216 -31 -457 -1 -59
-5 -145 -10 -192 -4 -47 -4 -161 0 -253 l7 -167 82 0 c44 0 77 4 71 8 -18 13
-22 216 -11 612 6 244 19 365 57 539 6 25 12 87 14 139 3 52 7 98 11 101 3 3
260 7 571 9 525 2 567 1 585 -15 16 -14 23 -15 38 -5 27 17 51 5 44 -22 -3
-12 0 -98 7 -191 6 -94 13 -250 14 -347 2 -98 7 -183 11 -189 8 -13 260 -5
344 11 25 5 81 15 125 23 44 8 97 21 119 30 47 21 56 21 56 3 0 -24 51 -5 70
26 9 16 32 40 51 53 44 33 108 111 127 155 23 56 41 174 48 323 l7 137 216 0
216 -1 32 -67 c18 -37 56 -91 84 -120 43 -44 56 -53 81 -50 l31 3 -2 -85 c-1
-67 4 -102 24 -164 13 -43 30 -97 36 -120 6 -22 22 -56 36 -74 13 -18 38 -65
54 -104 16 -40 36 -79 43 -87 7 -9 16 -28 20 -43 8 -33 50 -85 77 -93 18 -6
20 -12 14 -48 -12 -83 -16 -92 -44 -108 -43 -25 -71 -93 -71 -173 l0 -67 92 3
c84 3 93 5 96 23 9 47 16 48 192 42 164 -6 300 2 395 23 28 6 75 15 105 19 30
5 68 14 83 20 53 21 62 15 95 -59 17 -39 36 -70 41 -70 12 0 4 26 -34 99 -28
56 -29 61 -15 61 6 0 27 10 48 23 20 12 55 28 77 36 22 7 74 34 115 61 124 78
193 118 240 141 70 33 93 45 115 57 11 6 37 19 58 28 l37 16 44 -36 c24 -19
47 -48 51 -63 17 -68 37 -246 37 -330 l0 -93 106 0 c79 0 103 3 95 11 -9 9 -9
16 0 30 9 15 9 23 0 38 -8 13 -9 21 -1 29 8 8 8 15 0 25 -9 10 -9 16 0 25 8 8
8 15 -1 25 -7 9 -12 52 -12 111 0 94 -1 97 -21 90 -18 -5 -20 -3 -13 12 4 11
7 26 8 34 0 8 4 20 9 27 6 7 5 19 -1 32 -6 11 -11 29 -11 40 0 12 -4 21 -10
21 -5 0 -10 6 -10 14 0 7 -25 35 -55 61 -59 50 -62 58 -41 102 8 15 22 61 31
100 15 62 15 75 4 90 -11 13 -11 17 -1 20 16 6 16 35 0 51 -10 10 -10 15 1 21
30 19 -21 99 -98 153 -21 15 -22 20 -12 49 6 17 11 44 11 58 0 15 6 33 12 39
14 14 13 182 -1 210 -66 134 -65 130 -49 154 8 13 18 42 22 66 3 24 12 51 18
61 6 10 8 27 4 37 -4 11 -10 50 -12 88 -3 39 -10 76 -16 83 -7 9 -7 17 1 27
10 12 8 17 -8 26 -25 13 -27 30 -5 30 14 0 14 3 4 16 -15 17 -23 64 -11 64 12
0 10 104 -3 119 -8 11 -8 15 2 18 18 7 15 20 -10 45 -14 14 -18 23 -10 26 7 2
12 13 12 24 0 13 -5 18 -14 15 -11 -4 -13 6 -12 49 0 30 4 54 9 54 4 0 7 7 7
15 0 8 -4 15 -10 15 -13 0 -50 41 -49 54 0 6 3 5 6 -1 5 -13 33 -18 33 -6 0 4
-10 17 -22 30 -19 20 -20 25 -8 33 12 7 12 12 2 22 -6 6 -12 25 -12 41 0 24
-3 27 -20 22 -26 -8 -28 22 -2 42 16 13 15 14 -5 10 -17 -4 -23 -1 -23 13 0
11 5 22 10 25 17 11 11 22 -20 35 -18 7 -30 20 -30 31 0 10 -5 21 -10 24 -6 4
-8 11 -4 16 3 6 -2 19 -12 30 -9 10 -14 19 -10 19 4 0 -2 12 -13 26 -24 31
-28 52 -6 34 17 -14 21 0 4 17 -6 6 -18 9 -26 6 -12 -5 -14 0 -8 25 7 33 -2
41 -23 20 -10 -10 -12 -5 -10 22 1 19 -2 43 -6 53 -8 16 103 17 2238 17 1536
0 2246 3 2246 10 0 6 -7 13 -15 16 -30 12 -14 24 30 24 25 0 45 5 45 10 0 6
-20 10 -45 10 -41 0 -45 2 -45 25 0 24 3 25 61 25 81 0 77 24 -4 28 l-57 3 0
99 c0 82 3 100 15 100 8 0 15 5 15 10 0 6 -7 10 -15 10 -14 0 -15 295 -15
2664 l0 2664 23 8 c30 12 -901 14 -8976 16 l-6987 3 0 -2802z m8255 2251 c19
-13 76 -51 169 -113 21 -14 54 -44 73 -67 19 -23 58 -60 86 -82 29 -22 71 -59
95 -82 25 -24 49 -39 57 -36 14 5 55 -37 55 -57 0 -5 16 -34 36 -64 44 -67 88
-173 77 -184 -13 -13 -36 8 -82 75 -23 33 -63 76 -90 95 -108 80 -283 226
-294 247 -25 44 -229 194 -292 212 -128 38 -167 42 -320 32 -87 -5 -110 -11
-175 -42 -41 -20 -122 -57 -180 -83 -119 -54 -217 -109 -306 -172 -34 -23 -65
-43 -70 -43 -18 0 -97 -46 -126 -72 -17 -16 -35 -28 -40 -28 -5 0 -34 -21 -64
-46 -43 -37 -54 -52 -52 -73 3 -25 0 -26 -49 -29 -39 -2 -53 0 -53 10 0 28
210 209 313 270 28 16 70 43 92 58 42 29 138 81 270 149 140 70 299 115 450
127 304 24 383 23 420 -2z m-1581 -703 c11 -17 -32 -41 -107 -61 -119 -30
-208 -88 -367 -238 -80 -75 -113 -132 -135 -232 -9 -41 -20 -84 -25 -95 -5
-11 -11 -69 -13 -130 -4 -86 -11 -129 -35 -200 -38 -114 -80 -297 -92 -400 -5
-44 -13 -92 -17 -108 -8 -28 -60 -70 -75 -61 -17 10 -7 71 21 129 22 47 30 81
35 155 8 115 25 238 36 265 4 11 12 65 18 120 10 95 47 234 78 293 8 15 14 32
14 39 0 29 62 145 107 198 92 111 298 263 400 296 21 6 47 15 58 20 44 18 91
23 99 10z m2293 -763 c5 -7 19 -53 31 -101 27 -106 30 -235 7 -243 -20 -8 -45
13 -45 37 0 11 -10 45 -21 77 -12 31 -30 80 -40 109 l-19 51 30 32 c17 18 30
36 30 41 0 13 16 11 27 -3z m-2455 -237 c30 -11 162 -116 223 -176 39 -38 106
-72 123 -61 8 5 67 -12 88 -26 6 -4 58 -10 115 -14 57 -3 109 -9 114 -14 28
-21 65 -18 165 15 99 32 171 53 250 75 79 21 266 81 282 90 28 15 115 24 122
11 4 -6 15 -11 24 -11 9 -1 33 -15 53 -33 47 -41 67 -107 64 -207 -3 -123 -22
-184 -73 -242 -50 -55 -50 -51 -32 -203 16 -138 17 -245 2 -345 -13 -91 -30
-173 -42 -205 -5 -11 -23 -58 -41 -105 -34 -91 -96 -185 -132 -201 -36 -16
-63 -69 -82 -159 -18 -90 -103 -282 -148 -336 -13 -16 -38 -57 -55 -90 -33
-65 -102 -135 -181 -181 -53 -32 -181 -45 -222 -22 -14 8 -74 16 -139 20 -129
8 -269 23 -348 38 -47 10 -74 20 -207 82 -27 13 -52 36 -76 72 -30 47 -37 69
-48 153 -16 120 -4 406 19 478 6 16 10 45 10 65 0 20 9 68 18 106 l18 70 -46
65 c-129 181 -156 348 -101 626 10 54 22 116 26 137 9 54 54 186 78 229 l21
38 -22 23 c-28 29 -42 77 -42 138 0 81 52 121 150 114 25 -2 57 -8 72 -14z
m2833 -1548 c11 -7 27 -13 37 -13 12 0 18 -8 18 -24 0 -30 16 -42 35 -26 12
10 17 7 26 -14 16 -35 -13 -352 -42 -457 -79 -287 -127 -400 -228 -529 -37
-47 -82 -112 -101 -145 -39 -67 -180 -214 -252 -263 -76 -52 -112 -88 -104
-107 3 -9 1 -26 -5 -38 -17 -33 -111 -127 -128 -127 -8 0 -22 -7 -31 -15 -9
-8 -27 -16 -40 -17 -35 -4 -48 37 -31 103 11 43 11 53 0 60 -10 6 -13 34 -12
113 l2 105 -40 33 c-101 83 -102 85 -95 129 4 23 13 53 20 68 8 14 96 110 196
213 194 201 205 213 275 328 37 60 45 82 42 110 -2 19 2 48 10 64 34 67 169
255 217 301 28 28 64 71 81 97 44 70 96 88 150 51z m605 -172 c14 -8 46 -30
72 -50 98 -75 135 -101 144 -101 5 0 39 -27 74 -61 36 -33 76 -70 90 -81 143
-115 409 -384 550 -557 19 -24 45 -55 58 -70 12 -14 25 -37 29 -51 3 -14 9
-29 13 -35 6 -8 61 -132 111 -250 12 -29 29 -98 25 -102 -2 -2 -19 4 -37 13
-63 32 -69 34 -94 34 -14 0 -25 -4 -25 -10 0 -5 -15 -10 -34 -10 -29 0 -37 -5
-50 -32 -19 -37 -20 -61 -5 -91 14 -27 59 -66 77 -67 7 0 39 -12 70 -26 31
-15 68 -32 82 -38 30 -13 116 -101 135 -137 8 -14 24 -54 36 -89 20 -59 82
-170 119 -215 23 -28 89 -197 105 -270 8 -33 21 -87 30 -120 25 -92 51 -269
59 -395 11 -184 17 -247 28 -303 14 -72 1 -93 -35 -59 -22 21 -86 27 -103 9
-4 -4 -20 -7 -35 -7 -33 0 -59 -40 -59 -90 0 -55 45 -109 91 -110 31 0 116
-67 137 -107 8 -15 18 -72 22 -127 4 -56 11 -108 15 -117 5 -14 -2 -18 -37
-22 -79 -9 -112 -22 -125 -47 -23 -45 -16 -85 21 -124 31 -34 37 -36 96 -36
47 0 69 -5 92 -21 28 -21 29 -24 25 -83 -6 -76 -29 -158 -48 -167 -8 -4 -32
-16 -54 -28 -52 -27 -96 -48 -115 -55 -8 -3 -22 -10 -30 -14 -8 -5 -32 -17
-52 -28 -36 -18 -187 -108 -246 -146 -15 -10 -43 -25 -62 -34 -19 -9 -58 -27
-85 -40 -28 -13 -57 -24 -66 -24 -8 0 -20 -5 -25 -10 -8 -8 -38 59 -99 216
l-89 226 26 22 c70 57 283 187 358 218 77 33 87 40 99 65 6 13 11 42 11 63 0
22 5 40 10 40 6 0 10 5 10 10 0 6 -9 10 -20 10 -11 0 -28 9 -37 20 -19 22 -48
26 -58 10 -4 -6 -15 -8 -25 -5 -11 3 -30 1 -42 -6 -13 -7 -30 -13 -39 -14 -21
-2 -102 -49 -119 -69 -7 -9 -19 -16 -27 -16 -8 0 -29 -11 -47 -25 -18 -14 -36
-25 -40 -25 -4 0 -37 -20 -73 -45 -37 -25 -69 -42 -73 -38 -4 4 -29 64 -55
133 -26 69 -62 152 -78 185 -17 33 -30 66 -29 73 2 9 -42 12 -193 12 -107 0
-195 3 -195 6 0 13 124 171 158 202 21 17 64 48 97 67 108 64 185 114 244 157
31 24 73 51 93 62 74 37 96 75 84 139 -9 42 -52 93 -69 79 -7 -5 -38 -12 -70
-16 -69 -6 -118 -32 -202 -108 -68 -62 -159 -128 -176 -128 -6 0 -26 -12 -44
-28 -18 -15 -50 -38 -70 -52 -42 -29 -41 -28 -100 -101 -25 -31 -45 -61 -45
-66 0 -6 -7 -16 -16 -24 -8 -7 -31 -38 -51 -68 -87 -136 -68 -121 -155 -121
-56 0 -78 4 -78 13 0 6 -11 25 -25 41 -14 16 -25 37 -25 46 0 10 -7 23 -15 30
-8 7 -15 19 -15 26 0 8 -10 19 -23 25 -25 11 -51 55 -61 102 -4 15 -15 36 -25
46 -10 10 -24 32 -32 49 -8 18 -17 32 -20 32 -4 0 -10 10 -14 23 -4 12 -9 24
-10 27 -1 3 -6 15 -10 28 -4 12 -11 22 -16 22 -5 0 -9 9 -9 21 0 11 -4 17 -10
14 -5 -3 -10 0 -10 9 0 8 -11 28 -25 44 -14 17 -25 35 -25 41 0 6 -4 11 -10
11 -5 0 -10 6 -10 14 0 7 -11 25 -25 40 -14 15 -25 30 -25 35 0 4 -12 21 -27
39 -53 59 -61 70 -68 91 -3 12 -11 21 -16 21 -5 0 -9 7 -9 15 0 8 -4 15 -9 15
-13 0 -111 125 -111 141 0 25 -34 89 -48 89 -9 0 -11 7 -7 20 4 11 2 20 -4 20
-6 0 -11 11 -11 25 0 14 -4 25 -10 25 -5 0 -10 9 -10 20 0 11 -4 20 -9 20 -5
0 -11 14 -14 30 -5 21 -12 30 -26 30 -11 0 -21 5 -23 12 -3 8 -9 8 -19 2 -8
-5 -25 -9 -38 -9 -18 0 -27 -8 -34 -29 -8 -24 -4 -39 22 -91 17 -35 31 -66 31
-70 0 -10 25 -66 73 -165 28 -55 68 -114 117 -170 42 -47 83 -101 92 -120 10
-19 38 -60 62 -90 80 -97 102 -132 186 -300 46 -91 97 -183 115 -205 34 -43
65 -91 65 -100 0 -3 -96 -4 -212 -3 l-213 3 -3 25 c-8 81 -27 142 -51 168 -24
25 -26 34 -27 122 -1 95 -20 170 -44 170 -14 0 -80 -34 -126 -65 -20 -14 -62
-32 -93 -41 -31 -9 -67 -21 -81 -26 -14 -6 -77 -15 -140 -20 -152 -13 -135
-13 -301 -4 l-147 8 -17 -68 c-11 -41 -18 -110 -19 -169 l-1 -100 -575 -3
-575 -2 -3 127 c-4 192 -4 198 0 333 6 175 30 255 142 481 41 81 90 172 109
201 37 54 215 233 322 323 32 28 100 89 150 137 49 49 94 88 98 88 5 0 36 21
69 46 33 25 76 48 94 51 22 4 34 11 34 22 1 27 168 93 251 99 68 5 69 4 69
-20 0 -14 -6 -41 -14 -59 -7 -19 -12 -48 -9 -66 3 -17 1 -39 -5 -48 -15 -28
20 -175 48 -197 37 -30 78 -10 111 54 13 25 26 38 40 38 29 0 58 17 104 60 22
21 74 58 115 81 41 23 107 66 147 95 39 30 75 54 79 54 4 0 25 16 48 35 101
88 150 127 184 149 51 33 195 189 287 310 43 57 233 412 251 468 4 13 20 51
35 86 36 78 70 175 79 227 19 101 32 165 46 225 8 36 17 74 19 86 3 11 13 32
24 46 22 28 68 32 111 9z m-4100 -393 c5 -13 20 -50 33 -84 13 -34 46 -99 74
-145 38 -64 52 -98 57 -141 6 -48 11 -58 27 -58 16 0 18 -5 13 -25 -3 -14 -6
-37 -6 -52 -1 -16 -7 -57 -15 -93 -7 -36 -16 -75 -18 -86 -6 -29 -36 -35 -75
-16 -23 11 -37 13 -49 5 -16 -10 -91 8 -117 28 -6 5 -52 12 -102 15 -86 7 -94
5 -147 -21 -47 -23 -61 -25 -81 -17 -29 14 -39 48 -25 86 6 15 11 38 11 51 0
12 38 99 85 191 76 148 111 206 162 264 7 8 24 29 38 46 22 28 96 74 118 74 4
0 12 -10 17 -22z m87 -70 c-3 -8 -6 -5 -6 6 -1 11 2 17 5 13 3 -3 4 -12 1 -19z
m1483 -263 c-7 -8 -17 -15 -22 -15 -6 0 -5 7 2 15 7 8 17 15 22 15 6 0 5 -7
-2 -15z m-1336 -511 c3 -9 6 -23 6 -32 0 -13 -5 -11 -20 8 -11 14 -20 28 -20
33 0 14 28 7 34 -9z m-34 -101 c0 4 35 -28 78 -71 78 -79 173 -144 317 -217
44 -22 98 -52 120 -66 63 -41 227 -129 241 -129 7 0 23 -13 36 -28 13 -16 52
-47 86 -70 34 -24 62 -50 62 -59 0 -20 -38 -63 -56 -63 -7 0 -14 5 -16 11 -3
8 -11 8 -27 -2 -21 -13 -25 -12 -50 21 -58 75 -188 187 -256 220 -16 8 -88 51
-160 96 -71 45 -150 91 -175 102 -43 19 -177 52 -210 52 -43 0 -141 153 -144
225 -1 28 2 30 39 35 36 5 44 2 78 -29 20 -19 37 -32 37 -28z m2810 -17 c0 -2
-8 -10 -17 -17 -16 -13 -17 -12 -4 4 13 16 21 21 21 13z m7060 -301 c0 -19 -7
-26 -32 -34 l-33 -9 33 -1 c17 -1 32 -5 32 -11 0 -7 -754 -10 -2242 -9 -1234
0 -2237 3 -2230 6 15 6 16 35 1 50 -6 6 -8 16 -5 22 5 8 643 11 2242 11 l2234
0 0 -25z m-4493 -27 c-3 -8 -6 -5 -6 6 -1 11 2 17 5 13 3 -3 4 -12 1 -19z
m-2443 -1479 c8 -47 0 -102 -21 -142 -25 -49 -112 -91 -333 -160 -178 -56
-239 -67 -352 -66 -139 1 -152 6 -156 51 -3 33 6 108 24 196 l6 33 127 -7
c260 -13 491 25 611 101 73 46 86 45 94 -6z m43 -326 l6 -53 -65 0 c-60 0 -66
2 -79 27 -8 14 -26 34 -41 43 l-27 16 68 32 c38 18 77 42 87 53 l19 21 13 -43
c7 -24 15 -68 19 -96z m-287 -4 c0 -6 -5 -19 -10 -30 -9 -16 -22 -19 -82 -19
-39 0 -69 2 -66 5 7 7 130 53 146 54 6 1 12 -4 12 -10z m-30 -81 c-1 -25 -26
-57 -65 -87 -34 -26 -49 -31 -105 -31 -92 -2 -140 -19 -167 -59 -29 -42 -29
-75 -2 -102 20 -20 38 -20 102 -3 9 3 17 1 17 -4 0 -24 -65 -101 -109 -130
-56 -36 -62 -55 -31 -94 23 -30 127 -54 184 -44 48 9 109 57 149 116 37 54 47
55 47 3 0 -46 14 -69 50 -82 47 -16 78 1 101 55 21 48 20 86 -3 143 -7 14 -12
37 -12 51 -1 20 -7 26 -28 28 l-27 3 19 32 c11 17 27 56 37 87 9 30 22 64 30
75 7 11 13 27 13 37 0 15 9 18 65 18 62 0 65 -1 72 -27 15 -53 8 -225 -11
-283 -10 -30 -22 -59 -27 -65 -5 -5 -9 -15 -9 -21 0 -19 -57 -136 -77 -159
-20 -22 -77 -65 -88 -65 -4 0 -4 14 0 30 5 22 3 30 -7 30 -22 0 -61 -47 -54
-65 7 -20 -26 -34 -124 -51 -41 -7 -95 -17 -120 -23 -25 -5 -105 -13 -177 -17
l-133 -7 0 89 c0 49 -4 148 -9 219 -5 72 -13 190 -16 263 l-7 132 98 1 c55 1
113 5 129 9 17 4 90 8 163 9 100 1 132 -2 132 -11z m119 -48 c-8 -67 -53 -170
-74 -170 -25 0 -81 31 -94 52 -10 17 -8 22 14 39 43 34 55 49 75 95 18 39 24
44 53 44 l33 0 -7 -60z m1021 55 c0 -2 -11 -30 -25 -60 -22 -51 -45 -66 -45
-30 0 7 -7 16 -16 19 -9 4 -14 9 -11 13 4 3 0 15 -8 27 -23 32 -19 36 45 36
33 0 60 -2 60 -5z m647 -42 c26 -45 143 -336 143 -357 0 -14 -41 -56 -54 -56
-10 0 -62 -39 -134 -100 -13 -11 -27 -20 -32 -20 -5 0 -17 -11 -27 -24 -10
-13 -59 -66 -108 -118 -94 -100 -135 -127 -135 -89 0 12 5 21 11 21 30 0 -25
104 -61 115 -11 4 -20 13 -20 22 0 9 6 13 15 9 18 -7 19 -2 3 26 -21 35 -41
60 -75 92 -24 22 -31 35 -27 52 3 12 1 25 -5 28 -16 11 -13 24 7 29 14 3 12 6
-10 17 -31 14 -37 30 -13 30 12 0 13 5 7 18 -9 17 -1 104 16 173 5 20 26 68
47 107 l37 72 194 0 193 0 28 -47z m-1882 -157 c13 -14 20 -27 17 -30 -12 -13
-41 -5 -55 17 -14 21 -15 21 -35 4 -20 -18 -130 -52 -139 -43 -3 2 -2 14 2 25
10 33 53 50 124 51 55 0 67 -3 86 -24z m125 -61 c7 -8 21 -15 30 -15 40 0 88
-102 75 -160 -15 -67 -60 -62 -69 8 -11 92 -19 117 -42 139 -24 22 -31 43 -15
43 5 0 14 -7 21 -15z m-100 -33 c0 -24 -63 -102 -108 -132 -52 -35 -64 -56
-38 -66 33 -13 137 72 174 141 13 25 17 27 20 11 2 -10 0 -21 -5 -25 -5 -3
-19 -23 -31 -43 -28 -46 -84 -96 -117 -104 -14 -3 -41 -3 -60 0 -32 6 -35 10
-35 40 0 22 8 40 26 57 14 13 40 48 57 77 30 50 34 52 74 52 24 0 43 -4 43 -8z
m-3590 -44 c13 -31 50 -181 59 -243 4 -27 15 -78 24 -111 17 -62 67 -291 67
-306 0 -14 -94 -8 -125 8 -32 17 -108 12 -133 -8 -25 -21 -24 2 2 32 31 37 33
60 7 60 -27 0 -80 -68 -87 -112 -7 -42 -20 -48 -107 -48 -107 0 -207 38 -207
79 0 10 -9 25 -20 32 -17 12 -22 29 -27 102 -4 56 -1 109 6 145 14 61 56 173
79 209 17 28 201 117 272 132 99 21 145 34 155 42 15 14 25 10 35 -13z m-594
-53 c-23 -17 -36 -19 -36 -6 0 5 8 12 18 14 32 9 37 6 18 -8z m4544 -85 c-12
-16 -24 -30 -26 -30 -7 0 5 20 24 43 24 27 25 20 2 -13z m-4585 -39 c3 -5 1
-12 -5 -16 -5 -3 -10 1 -10 9 0 18 6 21 15 7z m6403 -314 c45 -117 82 -218 82
-225 0 -6 -17 -14 -37 -17 -21 -3 -46 -10 -55 -16 -10 -5 -31 -9 -46 -9 -16 0
-73 -7 -128 -16 -147 -23 -184 -26 -197 -16 -7 5 -43 10 -81 11 -38 1 -72 4
-75 7 -10 10 29 95 71 151 62 85 173 203 228 243 27 19 67 50 91 68 23 17 47
32 53 32 6 0 48 -96 94 -213z m1129 1 c-3 -8 -6 -5 -6 6 -1 11 2 17 5 13 3 -3
4 -12 1 -19z"/>
<path d="M6365 6428 c-5 -13 7 -34 43 -75 40 -45 48 -61 42 -77 -4 -12 -8 -51
-9 -88 -2 -62 0 -68 18 -68 14 0 27 -13 41 -41 15 -28 32 -45 58 -55 20 -9 61
-26 90 -40 29 -13 59 -24 68 -24 13 0 14 -16 9 -107 -7 -134 -9 -143 -43 -143
-36 0 -65 -21 -102 -74 -43 -63 -51 -114 -34 -200 8 -39 20 -76 27 -82 25 -24
129 -74 153 -74 46 0 22 32 -51 69 -69 36 -70 36 -77 86 -13 81 0 148 35 190
29 36 32 37 79 31 l48 -7 0 33 c-1 101 13 199 29 211 9 6 37 41 63 77 25 36
58 76 72 89 18 17 24 31 20 44 -4 13 3 28 20 46 24 25 26 31 15 54 -14 31 1
99 28 129 9 10 13 25 9 34 -12 32 -96 -8 -96 -46 0 -10 -6 -23 -14 -29 -17
-15 -149 -15 -231 -1 -33 6 -87 13 -120 17 -45 4 -66 12 -87 32 -15 14 -38 35
-50 47 -13 11 -28 29 -35 40 -10 18 -12 18 -18 2z m241 -174 c27 -8 56 -19 65
-24 9 -5 20 -6 24 -2 10 11 198 1 213 -10 6 -6 12 -32 12 -58 0 -36 -6 -53
-25 -74 -31 -34 -70 -36 -61 -3 4 12 10 42 13 66 9 64 -13 44 -27 -25 -7 -31
-20 -64 -31 -75 -24 -24 -72 -25 -95 -2 -12 13 -34 18 -71 18 -73 0 -83 14
-83 122 0 46 4 83 8 83 5 0 31 -7 58 -16z"/>
<path d="M7130 6355 c-7 -8 -20 -15 -30 -15 -39 0 -42 -101 -5 -160 28 -44 51
-60 86 -58 92 6 105 0 172 -66 80 -80 110 -96 186 -96 107 0 231 75 231 140 0
11 9 29 20 40 12 12 18 25 15 29 -3 5 -2 23 1 40 5 25 12 31 32 31 22 0 24 3
18 31 -3 17 -6 35 -6 40 0 4 -24 5 -53 2 -36 -4 -64 0 -91 11 -21 9 -51 16
-66 16 -35 0 -166 -43 -211 -68 -50 -30 -259 -79 -279 -67 -15 9 -12 60 5 101
21 50 4 84 -25 49z m559 -65 c45 -24 59 -134 25 -201 -20 -41 -40 -51 -127
-70 -75 -16 -85 -16 -119 -1 -21 9 -39 25 -42 37 -3 12 -21 38 -41 58 -19 20
-35 40 -35 44 0 15 73 48 99 44 31 -4 37 -12 45 -60 3 -21 14 -41 27 -49 11
-7 22 -12 24 -10 6 6 -15 103 -27 127 -11 21 -10 25 11 40 26 18 108 50 129
51 7 0 21 -4 31 -10z"/>
<path d="M7187 6033 c-15 -15 -5 -43 38 -97 25 -32 52 -81 60 -109 17 -57 20
-163 5 -172 -5 -3 -10 -15 -10 -26 0 -21 34 -27 45 -9 4 6 15 8 24 5 10 -3 38
4 62 15 60 27 97 26 108 -2 5 -13 12 -68 16 -123 8 -115 9 -113 -87 -164 -66
-35 -148 -50 -235 -43 -52 4 -63 2 -63 -11 0 -34 104 -47 213 -27 58 11 163
64 206 103 22 21 23 26 17 107 -10 131 -26 199 -50 215 -21 15 -109 12 -131
-5 -5 -4 -20 -11 -32 -14 -22 -7 -23 -5 -23 44 0 58 -24 150 -49 189 -27 44
-95 131 -101 131 -4 0 -10 -3 -13 -7z"/>
<path d="M6542 5198 c-62 -35 -145 -115 -138 -134 9 -24 44 -8 101 45 28 26
65 53 83 60 20 8 32 20 32 32 0 26 -27 24 -78 -3z"/>
<path d="M7366 5141 c-4 -5 15 -51 41 -101 44 -84 48 -98 51 -173 4 -88 12
-108 37 -87 37 31 11 176 -53 293 -38 68 -62 90 -76 68z"/>
<path d="M6826 5103 c-4 -10 -10 -48 -13 -85 -5 -58 -3 -68 11 -74 27 -10 34
5 38 91 2 67 0 80 -13 83 -9 2 -20 -5 -23 -15z"/>
<path d="M6483 4945 c-7 -19 -15 -14 87 -58 105 -46 172 -55 415 -58 158 -2
190 0 190 12 0 28 -67 38 -255 39 -198 0 -242 7 -340 54 -63 30 -88 32 -97 11z"/>
<path d="M16829 7933 c0 -5 -1 -611 -1 -1348 l0 -1340 968 -2 c533 -2 1035 -4
1116 -5 115 -2 149 0 153 10 3 7 5 615 5 1350 l0 1337 -1120 3 c-616 1 -1120
-1 -1121 -5z m2221 -1343 l0 -1330 -1105 0 -1105 0 0 1330 0 1330 1105 0 1105
0 0 -1330z"/>
<path d="M18829 7771 c-16 -16 -29 -39 -29 -51 0 -25 51 -80 75 -80 41 0 84
40 85 78 0 29 -51 82 -80 82 -12 0 -35 -13 -51 -29z m93 -8 c38 -34 11 -103
-40 -103 -54 0 -81 62 -45 102 20 22 61 23 85 1z"/>
<path d="M17035 7770 c-49 -19 -64 -82 -31 -119 51 -57 153 2 127 72 -16 41
-59 62 -96 47z m69 -26 c9 -8 16 -28 16 -44 0 -16 -7 -36 -16 -44 -8 -9 -28
-16 -44 -16 -16 0 -36 7 -44 16 -9 8 -16 28 -16 44 0 16 7 36 16 44 8 9 28 16
44 16 16 0 36 -7 44 -16z"/>
<path d="M17570 7751 c0 -17 -6 -21 -36 -21 -23 0 -34 -4 -32 -12 3 -7 18 -12
34 -13 19 0 30 -6 32 -17 3 -15 -4 -18 -37 -18 l-41 0 0 40 0 40 -45 0 -45 0
0 -130 c0 -118 8 -156 24 -115 6 17 36 21 36 5 0 -5 7 -10 15 -10 11 0 15 12
15 45 l0 45 66 0 65 0 -3 -47 c-3 -43 -5 -48 -25 -46 -15 2 -23 -3 -23 -12 0
-10 11 -15 35 -15 l34 0 3 58 c3 50 6 57 26 60 28 4 29 20 0 24 -29 4 -34 26
-7 30 12 2 24 9 27 16 2 8 -11 12 -48 12 -44 0 -51 3 -48 18 3 13 13 17 41 16
25 -1 37 3 37 12 0 10 -13 14 -39 14 -30 0 -38 4 -37 16 0 9 -5 19 -11 21 -8
3 -13 -4 -13 -16z m-110 -61 c0 -33 -3 -40 -20 -40 -16 0 -20 7 -20 33 0 36 6
47 27 47 9 0 13 -13 13 -40z m160 -65 c0 -12 -14 -15 -65 -15 -51 0 -65 3 -65
15 0 12 14 15 65 15 51 0 65 -3 65 -15z m-160 -41 c0 -38 -3 -45 -17 -42 -32
6 -30 88 2 88 11 0 15 -11 15 -46z"/>
<path d="M18130 7755 c0 -11 -11 -15 -40 -15 -38 0 -40 -2 -40 -30 0 -27 4
-30 40 -36 22 -4 40 -11 40 -16 0 -6 -13 -8 -30 -6 -20 3 -30 0 -30 -9 0 -8
12 -13 30 -13 17 0 30 -4 30 -10 0 -5 -18 -10 -40 -10 -22 0 -40 -4 -40 -10 0
-6 37 -10 90 -10 53 0 90 4 90 10 0 6 -18 10 -40 10 -22 0 -40 5 -40 10 0 6
14 10 30 10 19 0 30 5 30 14 0 9 -8 12 -24 9 -13 -3 -26 -1 -30 5 -3 5 12 12
34 16 36 6 40 9 40 36 0 28 -3 30 -35 30 -24 0 -35 5 -35 15 0 8 -7 15 -15 15
-8 0 -15 -7 -15 -15z m0 -44 c0 -6 -4 -12 -8 -15 -13 -8 -52 5 -46 15 7 12 54
12 54 0z m80 0 c0 -9 -23 -21 -40 -21 -4 0 -10 7 -14 15 -4 11 2 15 24 15 17
0 30 -4 30 -9z"/>
<path d="M18310 7636 l0 -136 -25 0 c-16 0 -25 -6 -25 -15 0 -16 55 -22 64 -7
11 18 8 286 -3 290 -8 3 -11 -37 -11 -132z"/>
<path d="M18510 7749 c0 -20 -4 -21 -60 -17 -45 3 -60 1 -60 -9 0 -9 17 -13
60 -13 33 0 60 -4 60 -10 0 -5 -22 -10 -50 -10 -38 0 -50 -4 -50 -15 0 -11 12
-15 51 -15 36 0 49 -4 46 -12 -2 -9 -25 -13 -65 -13 -43 0 -62 -4 -62 -12 0
-9 17 -13 52 -13 l52 0 -34 -25 c-18 -14 -42 -27 -52 -31 -10 -3 -18 -12 -18
-20 0 -17 8 -17 40 1 35 20 40 19 40 -10 0 -18 -5 -25 -20 -25 -12 0 -20 -7
-20 -16 0 -12 7 -14 33 -9 78 16 107 27 107 40 0 11 -7 12 -32 4 -18 -5 -34
-9 -35 -9 -2 0 -3 15 -3 34 0 36 29 73 38 48 16 -48 133 -135 147 -111 4 6 5
11 4 13 -2 1 -21 13 -42 26 l-38 22 25 27 c15 15 23 30 19 34 -3 4 1 7 10 7
10 0 17 6 17 13 0 10 -16 12 -65 9 -55 -4 -65 -2 -65 12 0 13 11 16 50 16 38
0 50 4 50 15 0 11 -12 15 -50 15 -27 0 -50 5 -50 10 0 6 27 10 60 10 43 0 60
4 60 13 0 10 -15 12 -60 9 -56 -4 -60 -3 -60 17 0 12 -6 21 -15 21 -9 0 -15
-9 -15 -21z m95 -159 c-10 -11 -22 -20 -26 -20 -5 0 -13 9 -19 20 -10 18 -8
20 26 20 36 0 37 0 19 -20z"/>
<path d="M17730 7615 c0 -122 2 -145 15 -145 12 0 15 17 15 90 l0 90 45 0 45
0 0 55 0 55 -60 0 -60 0 0 -145z m90 115 c0 -5 -13 -10 -30 -10 -16 0 -30 5
-30 10 0 6 14 10 30 10 17 0 30 -4 30 -10z m0 -50 c0 -5 -13 -10 -30 -10 -16
0 -30 5 -30 10 0 6 14 10 30 10 17 0 30 -4 30 -10z"/>
<path d="M17874 7746 c-3 -8 -4 -31 -2 -52 3 -39 3 -39 51 -42 l47 -3 0 -75
c0 -72 -1 -74 -25 -74 -18 0 -23 -4 -18 -16 4 -10 16 -14 37 -12 l31 3 3 143
3 142 -61 0 c-43 0 -62 -4 -66 -14z m96 -16 c0 -5 -16 -10 -35 -10 -19 0 -35
5 -35 10 0 6 16 10 35 10 19 0 35 -4 35 -10z m0 -50 c0 -5 -16 -10 -35 -10
-19 0 -35 5 -35 10 0 6 16 10 35 10 19 0 35 -4 35 -10z"/>
<path d="M18250 7645 c0 -59 4 -105 9 -105 6 0 11 47 13 105 2 79 0 105 -9
105 -10 0 -13 -28 -13 -105z"/>
<path d="M17800 7560 c0 -40 4 -70 10 -70 6 0 10 5 10 10 0 6 25 10 55 10 l55
0 0 60 0 60 -65 0 -65 0 0 -70z m100 35 c0 -16 -64 -22 -74 -6 -9 14 5 21 41
21 23 0 33 -5 33 -15z m0 -45 c0 -5 -18 -10 -40 -10 -22 0 -40 5 -40 10 0 6
18 10 40 10 22 0 40 -4 40 -10z"/>
<path d="M17517 7572 c-6 -9 38 -62 53 -62 18 0 11 26 -13 48 -25 24 -33 26
-40 14z"/>
<path d="M18070 7515 c0 -52 10 -69 26 -44 4 8 26 10 60 6 l54 -6 0 50 0 49
-70 0 -70 0 0 -55z m110 10 c0 -22 -4 -25 -40 -25 -36 0 -40 3 -40 25 0 23 4
25 40 25 36 0 40 -2 40 -25z"/>
<path d="M17212 7230 c-2 -3 -5 -342 -8 -755 -4 -504 -2 -758 4 -775 8 -19 11
-1 11 83 l1 108 143 -2 c136 -1 143 -2 153 -22 5 -12 17 -21 26 -21 10 1 14
-4 11 -12 -3 -8 -17 -14 -32 -14 -25 -1 -25 -1 -7 -15 19 -14 19 -15 1 -35
-20 -23 -13 -39 9 -21 10 8 16 9 21 1 8 -13 115 -13 115 0 0 6 -5 10 -11 10
-8 0 -10 18 -7 55 3 30 1 55 -4 55 -4 0 -8 4 -8 9 0 5 68 9 150 10 l150 2 0
-91 0 -90 -352 0 c-232 0 -348 -4 -338 -10 9 -6 289 -10 739 -10 l723 0 -3
760 -4 760 -734 0 c-404 0 -732 -2 -729 -5 2 -3 161 -5 351 -5 l347 -1 0 -114
0 -114 -355 0 -354 0 -4 132 c-1 73 -4 130 -5 127z m1466 -143 l-3 -112 -50 1
c-27 1 -80 2 -117 3 l-68 1 -2 98 -2 97 -5 -100 -6 -100 -127 0 -128 -1 -2 95
-2 96 -5 -95 -6 -95 -107 -3 -108 -3 0 115 0 115 370 0 371 1 -3 -113z m-1265
-137 c46 0 47 -1 49 -32 l1 -33 4 33 4 32 100 0 99 0 0 -45 c0 -25 5 -45 10
-45 6 0 10 20 10 45 l0 45 120 0 120 0 0 -110 0 -110 -355 0 -355 1 0 116 0
116 73 -6 c39 -4 93 -7 120 -7z m742 -108 l0 -107 -107 -3 -108 -3 0 111 0
110 108 0 107 0 0 -108z m270 0 l0 -107 -127 -3 -128 -3 0 111 0 110 128 0
127 0 0 -108z m255 -2 l0 -110 -120 0 -120 0 0 110 0 110 120 0 120 0 0 -110z
m-900 -128 c-30 -5 -51 -22 -27 -22 25 0 21 -16 -5 -25 -20 -6 -20 -8 -5 -12
12 -3 17 -15 17 -44 l0 -39 50 0 50 0 0 39 c0 29 5 41 18 44 14 4 14 6 -5 12
-27 9 -31 25 -6 25 24 0 4 17 -27 23 -14 2 1 5 33 6 l57 1 0 -90 0 -90 -309 0
c-169 0 -329 -3 -355 -6 l-46 -7 0 96 0 97 293 -2 c160 -1 281 -3 267 -6z
m378 -84 l3 -88 -111 0 -110 0 0 90 0 91 108 -3 107 -3 3 -87z m270 0 l3 -88
-131 0 -130 0 0 90 0 91 128 -3 127 -3 3 -87z m252 2 l0 -90 -120 0 -120 0 0
90 0 90 120 0 120 0 0 -90z m-858 48 c-9 -9 -15 -9 -24 0 -9 9 -7 12 12 12 19
0 21 -3 12 -12z m6 -55 c-10 -2 -26 -2 -35 0 -10 3 -2 5 17 5 19 0 27 -2 18
-5z m0 -30 c-10 -2 -26 -2 -35 0 -10 3 -2 5 17 5 19 0 27 -2 18 -5z m102 -168
l0 -95 -292 -1 c-161 0 -313 -4 -338 -8 -44 -8 199 -13 503 -11 l127 1 0 -105
0 -106 -355 0 -355 0 0 210 0 210 355 0 355 0 0 -95z m230 0 l0 -95 -110 0
-110 0 0 95 0 95 110 0 110 0 0 -95z m270 0 l0 -95 -130 0 -130 0 0 95 0 95
130 0 130 0 0 -95z m250 0 l0 -95 -120 0 -120 0 0 95 0 95 120 0 120 0 0 -95z
m-522 -217 l-3 -103 -107 -3 -108 -3 0 106 0 105 110 0 111 0 -3 -102z m270 0
l-3 -103 -127 -3 -128 -3 0 106 0 105 130 0 131 0 -3 -102z m252 -3 l0 -105
-120 0 -120 0 0 105 0 105 120 0 120 0 0 -105z m-1052 -125 l302 0 0 -85 0
-85 -286 0 c-282 0 -286 0 -263 19 20 16 22 22 12 44 -7 14 -22 27 -35 30 -20
4 -20 4 5 6 42 2 36 31 -7 31 -31 0 -34 -3 -38 -35 -4 -33 -2 -35 24 -35 18 0
28 -5 28 -15 0 -17 -25 -20 -35 -5 -7 12 -25 4 -25 -11 0 -5 10 -14 23 -19 21
-8 21 -9 1 -9 -12 -1 -42 -4 -68 -7 l-46 -7 0 98 0 98 53 -7 c28 -3 188 -6
355 -6z m532 -85 l0 -85 -110 0 -110 0 0 85 0 85 110 0 110 0 0 -85z m270 0
l0 -85 -130 0 -130 0 0 85 0 85 130 0 130 0 0 -85z m250 0 l0 -85 -35 0 c-33
0 -35 2 -35 35 l0 35 -50 0 -50 0 0 -35 c0 -33 -2 -35 -35 -35 l-35 0 0 85 0
85 120 0 120 0 0 -85z m-97 -32 c-13 -2 -33 -2 -45 0 -13 2 -3 4 22 4 25 0 35
-2 23 -4z m0 -30 c-13 -2 -33 -2 -45 0 -13 2 -3 4 22 4 25 0 35 -2 23 -4z m-5
-20 c-10 -2 -26 -2 -35 0 -10 3 -2 5 17 5 19 0 27 -2 18 -5z m-1013 -33 c3 -5
-3 -10 -14 -10 -11 0 -23 5 -26 10 -3 6 3 10 14 10 11 0 23 -4 26 -10z m45 0
c0 -5 -4 -10 -10 -10 -5 0 -10 5 -10 10 0 6 5 10 10 10 6 0 10 -4 10 -10z
m551 -75 l5 -80 2 83 2 83 128 -3 127 -3 0 -87 1 -88 -149 0 c-91 0 -146 4
-142 9 3 6 -19 11 -52 13 -55 3 -58 4 -61 31 -2 18 -9 27 -20 26 -11 0 -12 -3
-4 -6 17 -7 15 -40 -4 -47 -8 -3 -12 -10 -9 -16 4 -6 -5 -10 -19 -10 -26 0
-26 0 -26 90 l0 91 108 -3 107 -3 6 -80z m519 -5 c0 -84 -1 -90 -21 -90 -11 0
-18 4 -14 9 3 6 -19 11 -52 13 -55 3 -58 4 -61 31 -2 18 -9 27 -20 26 -11 0
-12 -3 -4 -6 17 -7 15 -40 -4 -47 -8 -3 -12 -10 -9 -16 4 -6 -6 -10 -24 -10
l-31 0 0 90 0 90 120 0 120 0 0 -90z m-1067 3 c-7 -2 -19 -2 -25 0 -7 3 -2 5
12 5 14 0 19 -2 13 -5z m0 -20 c-7 -2 -19 -2 -25 0 -7 3 -2 5 12 5 14 0 19 -2
13 -5z m427 -69 c0 -2 -9 -4 -21 -4 -11 0 -18 4 -14 10 5 8 35 3 35 -6z m510
0 c0 -2 -9 -4 -21 -4 -11 0 -18 4 -14 10 5 8 35 3 35 -6z"/>
<path d="M18545 7150 c-10 -11 -26 -22 -36 -25 -32 -10 -21 -25 19 -27 36 -1
36 -1 5 -5 -38 -5 -39 -8 -16 -31 16 -16 16 -17 0 -20 -9 -2 -17 -8 -17 -13 0
-5 32 -9 70 -9 39 0 70 4 70 9 0 5 -8 11 -17 13 -16 3 -16 4 0 20 23 23 22 26
-15 31 -32 4 -32 4 5 5 39 2 50 17 18 27 -10 3 -26 14 -36 25 -10 11 -21 20
-25 20 -4 0 -15 -9 -25 -20z m40 -20 c3 -5 -3 -10 -15 -10 -12 0 -18 5 -15 10
3 6 10 10 15 10 5 0 12 -4 15 -10z m-25 -75 c0 -8 -2 -15 -4 -15 -2 0 -6 7
-10 15 -3 8 -1 15 4 15 6 0 10 -7 10 -15z m34 0 c-4 -8 -8 -15 -10 -15 -2 0
-4 7 -4 15 0 8 4 15 10 15 5 0 7 -7 4 -15z"/>
<path d="M18050 7140 c0 -16 -7 -20 -30 -20 -16 0 -30 -4 -30 -10 0 -5 7 -10
15 -10 21 0 19 -24 -5 -45 -11 -10 -17 -22 -14 -26 8 -13 23 -1 45 35 l19 31
0 -32 c0 -23 -5 -33 -16 -33 -8 0 -12 -4 -9 -10 3 -5 15 -10 26 -10 15 0 19 7
19 32 l0 32 28 -27 c34 -32 52 -24 20 10 -20 21 -20 24 -5 41 21 23 21 32 3
32 -8 0 -17 -7 -20 -16 -8 -22 -26 -7 -26 22 0 13 -4 24 -10 24 -5 0 -10 -9
-10 -20z"/>
<path d="M18290 7145 c0 -10 -10 -15 -30 -15 -20 0 -30 -5 -30 -15 0 -10 10
-15 28 -15 l27 -1 -32 -29 c-18 -16 -33 -32 -33 -35 0 -12 26 -3 47 17 l23 21
0 -31 c0 -18 5 -32 10 -32 6 0 10 14 10 32 l0 31 23 -21 c21 -20 47 -29 47
-17 0 3 -15 19 -32 35 l-33 29 28 1 c17 0 27 5 27 15 0 10 -10 15 -30 15 -20
0 -30 5 -30 15 0 8 -4 15 -10 15 -5 0 -10 -7 -10 -15z"/>
<path d="M17520 6873 l0 -68 70 0 70 0 0 68 0 67 -70 0 -70 0 0 -67z m60 17
c0 -5 -8 -11 -17 -11 -17 -1 -17 -2 0 -6 23 -6 22 -23 -3 -23 -15 0 -20 7 -20
25 0 18 5 25 20 25 11 0 20 -4 20 -10z m59 -17 c-1 -17 -3 -21 -6 -10 -2 9
-11 17 -19 17 -8 0 -14 5 -14 10 0 6 9 10 20 10 15 0 20 -6 19 -27z m-21 -50
c-16 -2 -40 -2 -55 0 -16 2 -3 4 27 4 30 0 43 -2 28 -4z"/>
<path d="M17763 6890 c-12 -22 -17 -40 -12 -40 5 0 9 -16 9 -35 0 -19 5 -35
10 -35 6 0 10 7 10 15 0 9 9 15 25 15 16 0 25 -6 25 -15 0 -8 4 -15 10 -15 5
0 7 7 4 15 -6 14 10 20 44 16 17 -3 15 6 -8 29 -24 24 -26 45 -5 36 8 -3 15
-1 15 4 0 5 -10 10 -22 12 -13 2 -23 8 -23 15 0 6 -3 15 -7 19 -5 4 -8 -2 -8
-14 0 -29 -37 -30 -42 -2 -2 16 -7 12 -25 -20z m57 -19 c0 -4 -9 -16 -20 -26
-19 -18 -20 -17 -20 6 0 18 6 25 20 26 11 1 20 -2 20 -6z m10 -36 c0 -8 -4
-15 -10 -15 -5 0 -7 7 -4 15 4 8 8 15 10 15 2 0 4 -7 4 -15z m30 -6 c0 -6 -4
-7 -10 -4 -5 3 -10 11 -10 16 0 6 5 7 10 4 6 -3 10 -11 10 -16z"/>
<path d="M17340 6900 c0 -5 -7 -10 -15 -10 -8 0 -15 -4 -15 -9 0 -5 7 -11 15
-15 9 -3 15 -19 15 -41 0 -19 5 -35 10 -35 6 0 10 27 10 60 0 33 -4 60 -10 60
-5 0 -10 -4 -10 -10z"/>
<path d="M18010 6920 c0 -5 -12 -10 -27 -10 -26 0 -26 -1 -7 -14 18 -14 18
-15 -6 -25 -20 -8 -10 -10 50 -9 41 0 65 3 53 5 -27 5 -29 18 -5 32 14 9 13
10 -10 11 -16 0 -28 5 -28 10 0 6 -4 10 -10 10 -5 0 -10 -4 -10 -10z m28 -32
c-3 -7 -11 -13 -18 -13 -7 0 -15 6 -17 13 -3 7 4 12 17 12 13 0 20 -5 18 -12z"/>
<path d="M17970 6818 c0 -33 0 -33 50 -33 50 0 50 0 50 33 0 32 0 32 -50 32
-50 0 -50 0 -50 -32z m73 15 c-13 -2 -33 -2 -45 0 -13 2 -3 4 22 4 25 0 35 -2
23 -4z m0 -30 c-13 -2 -33 -2 -45 0 -13 2 -3 4 22 4 25 0 35 -2 23 -4z"/>
<path d="M18220 6900 c0 -5 5 -10 10 -10 6 0 10 -7 10 -15 0 -8 -5 -15 -10
-15 -6 0 -5 -8 2 -21 11 -17 10 -22 -6 -35 -24 -17 -11 -18 33 -3 24 9 35 9
44 0 8 -8 4 -11 -16 -11 -15 0 -27 -4 -27 -10 0 -5 23 -10 50 -10 28 0 50 5
50 10 0 6 -9 10 -20 10 -28 0 -25 20 3 21 21 1 21 1 -3 9 -24 8 -24 8 -2 9 19
1 22 6 22 41 l0 40 -70 0 c-40 0 -70 -4 -70 -10z m46 -37 c-11 -11 -19 6 -11
24 8 17 8 17 12 0 3 -10 2 -21 -1 -24z m39 27 c3 -5 1 -10 -4 -10 -6 0 -11 5
-11 10 0 6 2 10 4 10 3 0 8 -4 11 -10z m35 0 c0 -5 -4 -10 -10 -10 -5 0 -10 5
-10 10 0 6 5 10 10 10 6 0 10 -4 10 -10z m-30 -34 c0 -3 -4 -8 -10 -11 -5 -3
-10 -1 -10 4 0 6 5 11 10 11 6 0 10 -2 10 -4z m30 -6 c0 -5 -2 -10 -4 -10 -3
0 -8 5 -11 10 -3 6 -1 10 4 10 6 0 11 -4 11 -10z m-45 -23 c13 -3 9 -5 -12 -6
-31 -1 -41 8 -26 22 4 4 9 3 12 -2 3 -5 15 -11 26 -14z"/>
<path d="M18470 6833 l0 -68 70 0 70 0 0 68 0 67 -70 0 -70 0 0 -67z m120 50
c0 -5 -22 -8 -50 -8 -27 0 -50 3 -50 8 0 4 23 7 50 7 28 0 50 -3 50 -7z m-60
-33 c0 -5 -8 -11 -17 -11 -17 -1 -17 -2 0 -6 24 -6 22 -33 -3 -33 -16 0 -20 7
-20 30 0 23 4 30 20 30 11 0 20 -4 20 -10z m60 -22 c0 -24 -3 -29 -9 -18 -6 8
-7 18 -5 22 3 4 -2 8 -10 8 -9 0 -16 5 -16 10 0 6 9 10 20 10 16 0 20 -7 20
-32z m-22 -45 c-16 -2 -40 -2 -55 0 -16 2 -3 4 27 4 30 0 43 -2 28 -4z"/>
<path d="M17519 6708 c-3 -15 -7 -28 -9 -30 -7 -9 -5 -68 2 -68 5 0 6 -4 3
-10 -3 -5 -1 -10 6 -10 7 0 4 -7 -7 -15 -17 -13 -14 -14 36 -10 30 3 60 6 65
6 6 1 18 -2 28 -6 20 -8 23 8 3 24 -14 12 -10 57 5 67 17 10 9 24 -16 24 -16
0 -23 5 -19 13 3 9 -7 13 -36 13 -22 0 -40 -4 -40 -10 0 -6 -5 -4 -10 4 -5 8
-10 12 -11 8z m98 -70 c-3 -8 -6 -5 -6 6 -1 11 2 17 5 13 3 -3 4 -12 1 -19z
m-17 -33 c0 -8 -7 -15 -15 -15 -26 0 -18 20 13 29 1 1 2 -6 2 -14z"/>
<path d="M17320 6671 c-13 -26 -13 -31 5 -31 8 0 15 5 15 10 0 6 7 10 15 10
23 0 18 -14 -15 -38 -45 -34 -39 -52 15 -52 25 0 45 5 45 10 0 6 -15 10 -32
10 l-33 1 27 14 c32 18 44 50 28 70 -18 21 -57 18 -70 -4z"/>
<path d="M17990 6692 c0 -6 -6 -9 -13 -6 -8 3 -13 -3 -13 -16 0 -11 4 -20 9
-20 5 0 4 -7 -3 -15 -10 -12 -10 -22 -2 -40 8 -18 8 -25 -1 -28 -7 -2 -9 -7
-5 -11 3 -4 15 -3 26 3 13 7 22 7 30 -1 8 -8 15 -8 27 2 14 11 20 11 37 1 25
-15 38 -5 15 12 -13 9 -16 20 -11 45 4 17 11 32 16 32 5 0 6 5 3 10 -3 6 -15
10 -26 10 -11 0 -19 7 -19 18 -1 13 -4 11 -15 -8 -12 -21 -14 -22 -15 -6 0 11
-3 16 -7 13 -3 -4 -12 -2 -20 4 -9 8 -13 8 -13 1z m90 -49 c0 -5 -4 -14 -9
-21 -6 -10 -10 -9 -14 7 -3 14 0 21 9 21 8 0 14 -3 14 -7z m-38 -23 c14 0 6
-43 -9 -48 -7 -2 -13 3 -13 11 0 9 6 18 13 20 6 3 2 6 -10 6 -13 1 -23 6 -23
12 0 6 7 8 16 5 9 -3 20 -6 26 -6z"/>
<path d="M18240 6623 l0 -68 70 0 70 0 0 68 0 67 -70 0 -70 0 0 -67z m120 50
c0 -5 -22 -8 -50 -8 -27 0 -50 3 -50 8 0 4 23 7 50 7 28 0 50 -3 50 -7z m-60
-33 c0 -5 -8 -11 -17 -11 -17 -1 -17 -2 0 -6 24 -6 22 -33 -3 -33 -16 0 -20 7
-20 30 0 23 4 30 20 30 11 0 20 -4 20 -10z m60 -22 c0 -24 -3 -29 -9 -18 -6 8
-7 18 -5 22 3 4 -2 8 -10 8 -9 0 -16 5 -16 10 0 6 9 10 20 10 16 0 20 -7 20
-32z m-22 -45 c-16 -2 -40 -2 -55 0 -16 2 -3 4 27 4 30 0 43 -2 28 -4z"/>
<path d="M18530 6692 c0 -6 -6 -9 -13 -6 -8 3 -13 -3 -13 -16 0 -11 4 -20 9
-20 5 0 4 -7 -3 -15 -10 -12 -10 -22 -2 -40 8 -18 8 -25 -1 -28 -7 -2 -9 -7
-5 -11 3 -4 15 -3 26 3 13 7 22 7 30 -1 8 -8 15 -8 27 2 14 11 20 11 37 1 25
-15 38 -5 15 12 -13 9 -16 20 -11 45 4 17 11 32 16 32 5 0 6 5 3 10 -3 6 -15
10 -26 10 -11 0 -19 7 -19 18 -1 13 -4 11 -15 -8 -12 -21 -14 -22 -15 -6 0 11
-3 16 -7 13 -3 -4 -12 -2 -20 4 -9 8 -13 8 -13 1z m90 -49 c0 -5 -4 -14 -9
-21 -6 -10 -10 -9 -14 7 -3 14 0 21 9 21 8 0 14 -3 14 -7z m-38 -23 c14 0 6
-43 -9 -48 -7 -2 -13 3 -13 11 0 9 6 18 13 20 6 3 2 6 -10 6 -13 1 -23 6 -23
12 0 6 7 8 16 5 9 -3 20 -6 26 -6z"/>
<path d="M17740 6433 l0 -68 70 0 70 0 0 68 0 67 -70 0 -70 0 0 -67z m120 50
c0 -5 -22 -8 -50 -8 -27 0 -50 3 -50 8 0 4 23 7 50 7 28 0 50 -3 50 -7z m-60
-33 c0 -5 -8 -11 -17 -11 -17 -1 -17 -2 0 -6 24 -6 22 -33 -3 -33 -16 0 -20 7
-20 30 0 23 4 30 20 30 11 0 20 -4 20 -10z m60 -22 c0 -24 -3 -29 -9 -18 -6 8
-7 18 -5 22 3 4 -2 8 -10 8 -9 0 -16 5 -16 10 0 6 9 10 20 10 16 0 20 -7 20
-32z m-22 -45 c-16 -2 -40 -2 -55 0 -16 2 -3 4 27 4 30 0 43 -2 28 -4z"/>
<path d="M17540 6480 c0 -5 -7 -10 -16 -10 -14 0 -14 -3 -4 -15 7 -8 9 -16 4
-16 -5 -1 5 -5 21 -9 l30 -8 -32 -1 c-26 -1 -33 -5 -33 -20 0 -12 8 -21 23
-24 l22 -4 -22 -8 c-25 -8 -31 -25 -10 -25 7 0 23 7 35 16 20 14 24 14 44 0
12 -9 28 -16 35 -16 23 0 14 16 -14 27 l-28 11 28 1 c20 1 27 6 27 21 0 16 -7
20 -32 21 l-33 1 30 8 c17 4 26 8 21 9 -5 0 -3 8 4 16 10 13 9 15 -9 15 -12 0
-19 5 -16 10 9 14 -8 13 -23 -2 -9 -9 -15 -9 -24 0 -15 15 -28 16 -28 2z m27
-36 c-3 -3 -12 -4 -19 -1 -8 3 -5 6 6 6 11 1 17 -2 13 -5z m50 0 c-3 -3 -12
-4 -19 -1 -8 3 -5 6 6 6 11 1 17 -2 13 -5z"/>
<path d="M17322 6468 c-17 -17 -15 -38 3 -38 8 0 15 5 15 10 0 6 8 10 18 10
15 -1 15 -2 -2 -15 -20 -15 -20 -15 0 -29 24 -18 10 -34 -16 -18 -25 16 -30
15 -30 -3 0 -8 9 -19 21 -25 16 -9 26 -8 45 5 21 14 23 20 18 58 -4 23 -12 45
-18 49 -17 11 -41 9 -54 -4z"/>
<path d="M17530 6285 c0 -8 -4 -15 -10 -15 -5 0 -10 -4 -10 -10 0 -5 8 -10 17
-10 14 0 12 -4 -7 -25 -21 -22 -20 -30 3 -26 4 0 7 -10 7 -23 0 -21 4 -23 59
-25 33 -1 62 3 66 9 3 5 -3 10 -14 10 -17 0 -21 6 -21 30 0 20 5 30 15 30 8 0
15 5 15 10 0 6 -7 10 -15 10 -9 0 -15 9 -15 25 0 16 -6 25 -15 25 -9 0 -15 -9
-15 -25 0 -14 -3 -25 -6 -25 -10 0 -34 28 -34 39 0 6 -4 11 -10 11 -5 0 -10
-7 -10 -15z m60 -85 c0 -23 -4 -30 -20 -30 -11 0 -20 7 -20 15 0 8 3 14 8 14
19 -3 23 2 12 16 -10 12 -10 15 4 15 11 0 16 -9 16 -30z"/>
<path d="M17780 6262 c0 -6 -6 -9 -13 -6 -8 3 -13 -3 -13 -16 0 -11 4 -20 9
-20 5 0 4 -7 -3 -15 -10 -12 -10 -22 -2 -40 8 -18 8 -25 -1 -28 -7 -2 -9 -7
-5 -11 3 -4 15 -3 26 3 13 7 22 7 30 -1 8 -8 15 -8 27 2 14 11 20 11 37 1 25
-15 38 -5 15 12 -13 9 -16 20 -11 45 4 17 11 32 16 32 5 0 6 5 3 10 -3 6 -15
10 -26 10 -11 0 -19 7 -19 18 -1 13 -4 11 -15 -8 -12 -21 -14 -22 -15 -6 0 11
-3 16 -7 13 -3 -4 -12 -2 -20 4 -9 8 -13 8 -13 1z m90 -49 c0 -5 -4 -14 -9
-21 -6 -10 -10 -9 -14 7 -3 14 0 21 9 21 8 0 14 -3 14 -7z m-38 -23 c14 0 6
-43 -9 -48 -7 -2 -13 3 -13 11 0 9 6 18 13 20 6 3 2 6 -10 6 -13 1 -23 6 -23
12 0 6 7 8 16 5 9 -3 20 -6 26 -6z"/>
<path d="M17335 6223 c-31 -47 -32 -63 -1 -63 13 0 26 -6 29 -12 3 -9 10 -7
21 7 18 23 20 35 6 35 -5 0 -10 16 -10 35 0 45 -13 44 -45 -2z m25 -23 c0 -5
-5 -10 -11 -10 -5 0 -7 5 -4 10 3 6 8 10 11 10 2 0 4 -4 4 -10z"/>
<path d="M18010 6491 c0 -6 -7 -11 -15 -11 -27 0 -16 -20 13 -21 l27 -1 -30
-8 -30 -7 30 -5 30 -5 -32 -2 c-18 0 -33 -5 -33 -9 0 -5 12 -8 28 -7 15 1 18
0 7 -2 -35 -8 -41 -23 -9 -24 l29 -1 -27 -11 c-29 -11 -38 -27 -15 -27 7 0 23
7 35 16 20 14 24 14 44 0 12 -9 28 -16 35 -16 23 0 14 16 -14 27 l-28 11 30 1
c33 1 24 17 -15 24 -21 3 -19 5 10 7 l35 3 -35 7 -35 7 30 3 30 2 -30 8 -30 8
28 1 c28 1 39 21 12 21 -8 0 -15 5 -15 11 0 8 -5 8 -15 -1 -12 -10 -18 -10
-30 0 -10 9 -15 9 -15 1z"/>
<path d="M18270 6492 c0 -6 -6 -9 -13 -6 -8 3 -13 -3 -13 -16 0 -11 4 -20 9
-20 5 0 4 -7 -3 -15 -10 -12 -10 -22 -2 -40 8 -18 8 -25 -1 -28 -7 -2 -9 -7
-5 -11 3 -4 15 -3 26 3 13 7 22 7 30 -1 8 -8 15 -8 27 2 14 11 20 11 37 1 25
-15 38 -5 15 12 -13 9 -16 20 -11 45 4 17 11 32 16 32 5 0 6 5 3 10 -3 6 -15
10 -26 10 -11 0 -19 7 -19 18 -1 13 -4 11 -15 -8 -12 -21 -14 -22 -15 -6 0 11
-3 16 -7 13 -3 -4 -12 -2 -20 4 -9 8 -13 8 -13 1z m90 -49 c0 -5 -4 -14 -9
-21 -6 -10 -10 -9 -14 7 -3 14 0 21 9 21 8 0 14 -3 14 -7z m-38 -23 c14 0 6
-43 -9 -48 -7 -2 -13 3 -13 11 0 9 6 18 13 20 6 3 2 6 -10 6 -13 1 -23 6 -23
12 0 6 7 8 16 5 9 -3 20 -6 26 -6z"/>
<path d="M18522 6474 l-23 -11 23 -7 c14 -5 18 -9 11 -13 -7 -2 -13 -13 -13
-23 0 -10 -6 -21 -12 -23 -7 -3 0 -6 16 -6 24 -1 27 -3 16 -16 -7 -8 -19 -15
-26 -15 -8 0 -14 -4 -14 -10 0 -16 29 -11 48 8 18 18 19 18 42 0 24 -19 50
-24 50 -9 0 5 -11 12 -25 15 -33 9 -32 26 3 27 15 0 21 3 15 6 -7 2 -13 11
-13 19 0 8 -4 14 -10 14 -20 0 -9 29 13 33 l22 4 -22 2 c-13 0 -23 6 -23 11 0
6 -8 5 -20 -2 -14 -9 -23 -10 -28 -2 -5 7 -14 7 -30 -2z m52 -21 c-5 -5 -12
-12 -16 -18 -4 -6 -8 -2 -8 8 0 9 7 17 17 17 9 0 12 -3 7 -7z m-14 -43 c0 -5
-7 -10 -15 -10 -8 0 -15 5 -15 10 0 6 7 10 15 10 8 0 15 -4 15 -10z m50 0 c0
-5 -9 -10 -20 -10 -11 0 -20 5 -20 10 0 6 9 10 20 10 11 0 20 -4 20 -10z"/>
<path d="M17990 6275 c0 -8 -4 -15 -10 -15 -5 0 -10 -4 -10 -10 0 -5 7 -10 15
-10 22 0 18 -17 -5 -30 -11 -6 -18 -15 -15 -21 4 -5 11 -7 16 -4 5 4 9 -5 9
-19 0 -14 5 -26 10 -26 6 0 10 11 10 25 0 14 5 25 12 25 9 0 9 3 0 12 -8 8 -8
17 0 32 8 15 8 21 -1 24 -6 2 -11 10 -11 18 0 8 -4 14 -10 14 -5 0 -10 -7 -10
-15z"/>
<path d="M18059 6265 c-2 -17 -9 -29 -16 -27 -7 1 -13 -2 -13 -8 0 -5 7 -10
15 -10 10 0 15 -10 15 -29 0 -23 -5 -31 -22 -34 -13 -2 0 -4 27 -4 28 0 40 2
28 4 -18 3 -23 11 -23 34 0 23 4 29 22 29 12 0 18 3 14 8 -4 4 -13 7 -19 7 -7
0 -14 14 -18 30 l-6 30 -4 -30z"/>
<path d="M18240 6260 c0 -5 5 -10 10 -10 6 0 10 -7 10 -15 0 -8 -5 -15 -10
-15 -6 0 -5 -8 2 -21 11 -17 10 -22 -6 -35 -24 -17 -11 -18 33 -3 24 9 35 9
44 0 8 -8 4 -11 -16 -11 -15 0 -27 -4 -27 -10 0 -5 23 -10 50 -10 28 0 50 5
50 10 0 6 -9 10 -20 10 -28 0 -25 20 3 21 21 1 21 1 -3 9 -24 8 -24 8 -2 9 19
1 22 6 22 41 l0 40 -70 0 c-40 0 -70 -4 -70 -10z m46 -37 c-11 -11 -19 6 -11
24 8 17 8 17 12 0 3 -10 2 -21 -1 -24z m39 27 c3 -5 1 -10 -4 -10 -6 0 -11 5
-11 10 0 6 2 10 4 10 3 0 8 -4 11 -10z m35 0 c0 -5 -4 -10 -10 -10 -5 0 -10 5
-10 10 0 6 5 10 10 10 6 0 10 -4 10 -10z m-30 -34 c0 -3 -4 -8 -10 -11 -5 -3
-10 -1 -10 4 0 6 5 11 10 11 6 0 10 -2 10 -4z m30 -6 c0 -5 -2 -10 -4 -10 -3
0 -8 5 -11 10 -3 6 -1 10 4 10 6 0 11 -4 11 -10z m-45 -23 c13 -3 9 -5 -12 -6
-31 -1 -41 8 -26 22 4 4 9 3 12 -2 3 -5 15 -11 26 -14z"/>
<path d="M18510 6271 c0 -6 -7 -11 -15 -11 -27 0 -16 -20 13 -21 l27 -1 -30
-8 -30 -7 30 -5 30 -5 -32 -2 c-18 0 -33 -5 -33 -9 0 -5 12 -8 28 -7 15 1 18
0 7 -2 -35 -8 -41 -23 -9 -24 l29 -1 -27 -11 c-29 -11 -38 -27 -15 -27 7 0 23
7 35 16 20 14 24 14 44 0 12 -9 28 -16 35 -16 23 0 14 16 -14 27 l-28 11 30 1
c33 1 24 17 -15 24 -21 3 -19 5 10 7 l35 3 -35 7 -35 7 30 3 30 2 -30 8 -30 8
28 1 c28 1 39 21 12 21 -8 0 -15 5 -15 11 0 8 -5 8 -15 -1 -12 -10 -18 -10
-30 0 -10 9 -15 9 -15 1z"/>
<path d="M17500 6050 c0 -5 5 -10 10 -10 6 0 10 -7 10 -15 0 -8 -5 -15 -11
-15 -8 0 -7 -5 2 -16 10 -12 10 -20 1 -34 -13 -22 -3 -33 18 -19 8 5 26 8 40
7 23 -1 24 -1 3 -5 -43 -8 -23 -23 32 -23 55 0 79 19 28 21 -24 2 -25 2 -5 6
12 2 22 8 22 13 0 5 -10 11 -22 13 l-23 4 23 2 c19 1 22 7 22 41 l0 40 -75 0
c-43 0 -75 -4 -75 -10z m60 -25 c0 -8 -4 -15 -10 -15 -5 0 -10 7 -10 15 0 8 5
15 10 15 6 0 10 -7 10 -15z m15 -45 c18 -8 17 -9 -7 -9 -16 -1 -28 4 -28 9 0
12 8 12 35 0z"/>
<path d="M17750 6050 c0 -5 5 -10 10 -10 6 0 10 -7 10 -15 0 -8 -5 -15 -10
-15 -6 0 -5 -8 2 -21 11 -17 10 -22 -6 -35 -24 -17 -11 -18 33 -3 24 9 35 9
44 0 8 -8 4 -11 -16 -11 -15 0 -27 -4 -27 -10 0 -5 23 -10 50 -10 28 0 50 5
50 10 0 6 -9 10 -20 10 -28 0 -25 20 3 21 21 1 21 1 -3 9 -24 8 -24 8 -2 9 19
1 22 6 22 41 l0 40 -70 0 c-40 0 -70 -4 -70 -10z m46 -37 c-11 -11 -19 6 -11
24 8 17 8 17 12 0 3 -10 2 -21 -1 -24z m39 27 c3 -5 1 -10 -4 -10 -6 0 -11 5
-11 10 0 6 2 10 4 10 3 0 8 -4 11 -10z m35 0 c0 -5 -4 -10 -10 -10 -5 0 -10 5
-10 10 0 6 5 10 10 10 6 0 10 -4 10 -10z m-30 -34 c0 -3 -4 -8 -10 -11 -5 -3
-10 -1 -10 4 0 6 5 11 10 11 6 0 10 -2 10 -4z m30 -6 c0 -5 -2 -10 -4 -10 -3
0 -8 5 -11 10 -3 6 -1 10 4 10 6 0 11 -4 11 -10z m-45 -23 c13 -3 9 -5 -12 -6
-31 -1 -41 8 -26 22 4 4 9 3 12 -2 3 -5 15 -11 26 -14z"/>
<path d="M17980 6003 l0 -68 70 0 70 0 0 68 0 67 -70 0 -70 0 0 -67z m120 50
c0 -5 -22 -8 -50 -8 -27 0 -50 3 -50 8 0 4 23 7 50 7 28 0 50 -3 50 -7z m-60
-33 c0 -5 -8 -11 -17 -11 -17 -1 -17 -2 0 -6 24 -6 22 -33 -3 -33 -16 0 -20 7
-20 30 0 23 4 30 20 30 11 0 20 -4 20 -10z m60 -22 c0 -24 -3 -29 -9 -18 -6 8
-7 18 -5 22 3 4 -2 8 -10 8 -9 0 -16 5 -16 10 0 6 9 10 20 10 16 0 20 -7 20
-32z m-22 -45 c-16 -2 -40 -2 -55 0 -16 2 -3 4 27 4 30 0 43 -2 28 -4z"/>
<path d="M18262 6054 l-23 -11 23 -7 c14 -5 18 -9 11 -13 -7 -2 -13 -13 -13
-23 0 -10 -6 -21 -12 -23 -7 -3 0 -6 16 -6 24 -1 27 -3 16 -16 -7 -8 -19 -15
-26 -15 -8 0 -14 -4 -14 -10 0 -16 29 -11 48 8 18 18 19 18 42 0 24 -19 50
-24 50 -9 0 5 -11 12 -25 15 -33 9 -32 26 3 27 15 0 21 3 15 6 -7 2 -13 11
-13 19 0 8 -4 14 -10 14 -20 0 -9 29 13 33 l22 4 -22 2 c-13 0 -23 6 -23 11 0
6 -8 5 -20 -2 -14 -9 -23 -10 -28 -2 -5 7 -14 7 -30 -2z m52 -21 c-5 -5 -12
-12 -16 -18 -4 -6 -8 -2 -8 8 0 9 7 17 17 17 9 0 12 -3 7 -7z m-14 -43 c0 -5
-7 -10 -15 -10 -8 0 -15 5 -15 10 0 6 7 10 15 10 8 0 15 -4 15 -10z m50 0 c0
-5 -9 -10 -20 -10 -11 0 -20 5 -20 10 0 6 9 10 20 10 11 0 20 -4 20 -10z"/>
<path d="M18550 6050 c0 -5 -12 -10 -27 -10 -26 0 -26 -1 -7 -14 18 -14 18
-15 -6 -25 -20 -8 -10 -10 50 -9 41 0 65 3 53 5 -27 5 -29 18 -5 32 14 9 13
10 -10 11 -16 0 -28 5 -28 10 0 6 -4 10 -10 10 -5 0 -10 -4 -10 -10z m28 -32
c-3 -7 -11 -13 -18 -13 -7 0 -15 6 -17 13 -3 7 4 12 17 12 13 0 20 -5 18 -12z"/>
<path d="M18300 5870 c0 -5 -12 -10 -27 -10 -26 0 -26 -1 -7 -14 18 -14 18
-15 -6 -25 -20 -8 -10 -10 50 -9 41 0 65 3 53 5 -27 5 -29 18 -5 32 14 9 13
10 -10 11 -16 0 -28 5 -28 10 0 6 -4 10 -10 10 -5 0 -10 -4 -10 -10z m28 -32
c-3 -7 -11 -13 -18 -13 -7 0 -15 6 -17 13 -3 7 4 12 17 12 13 0 20 -5 18 -12z"/>
<path d="M18045 5846 c-6 -6 -9 -32 -7 -58 l4 -48 39 0 c38 0 39 1 39 35 0 26
-4 35 -17 36 -14 0 -12 3 5 10 19 7 21 11 10 23 -9 10 -17 11 -25 4 -9 -7 -17
-7 -25 0 -9 7 -16 6 -23 -2z m48 -53 c-7 -2 -21 -2 -30 0 -10 3 -4 5 12 5 17
0 24 -2 18 -5z m0 -20 c-7 -2 -21 -2 -30 0 -10 3 -4 5 12 5 17 0 24 -2 18 -5z
m0 -20 c-7 -2 -21 -2 -30 0 -10 3 -4 5 12 5 17 0 24 -2 18 -5z"/>
<path d="M17990 5842 c0 -5 7 -16 16 -23 14 -12 16 -11 13 5 -4 20 -29 35 -29
18z"/>
<path d="M18260 5768 c0 -33 0 -33 50 -33 50 0 50 0 50 33 0 32 0 32 -50 32
-50 0 -50 0 -50 -32z m73 15 c-13 -2 -33 -2 -45 0 -13 2 -3 4 22 4 25 0 35 -2
23 -4z m0 -30 c-13 -2 -33 -2 -45 0 -13 2 -3 4 22 4 25 0 35 -2 23 -4z"/>
<path d="M18555 5846 c-6 -6 -9 -32 -7 -58 l4 -48 39 0 c38 0 39 1 39 35 0 26
-4 35 -17 36 -14 0 -12 3 5 10 19 7 21 11 10 23 -9 10 -17 11 -25 4 -9 -7 -17
-7 -25 0 -9 7 -16 6 -23 -2z m48 -53 c-7 -2 -21 -2 -30 0 -10 3 -4 5 12 5 17
0 24 -2 18 -5z m0 -20 c-7 -2 -21 -2 -30 0 -10 3 -4 5 12 5 17 0 24 -2 18 -5z
m0 -20 c-7 -2 -21 -2 -30 0 -10 3 -4 5 12 5 17 0 24 -2 18 -5z"/>
<path d="M18500 5842 c0 -5 7 -16 16 -23 14 -12 16 -11 13 5 -4 20 -29 35 -29
18z"/>
<path d="M17810 7130 c0 -37 -23 -85 -45 -93 -8 -4 -15 -11 -15 -17 0 -18 26
-11 49 14 l23 25 23 -26 c16 -19 27 -24 41 -19 17 7 17 9 -7 21 -15 8 -29 22
-33 30 -3 9 -2 13 3 10 9 -5 41 31 41 47 0 17 -28 7 -33 -12 -8 -33 -27 -23
-27 15 0 19 -4 35 -10 35 -5 0 -10 -14 -10 -30z"/>
<path d="M17538 7098 c-2 -29 -8 -61 -12 -70 -5 -11 -4 -18 3 -18 6 0 17 11
23 25 8 18 19 25 40 25 18 0 28 -5 28 -15 0 -8 -4 -15 -10 -15 -5 0 -10 -4
-10 -10 0 -5 9 -10 20 -10 18 0 20 7 20 70 l0 70 -49 0 -49 0 -4 -52z m82 22
c0 -5 -13 -10 -30 -10 -16 0 -30 5 -30 10 0 6 14 10 30 10 17 0 30 -4 30 -10z
m-12 -37 c-10 -2 -26 -2 -35 0 -10 3 -2 5 17 5 19 0 27 -2 18 -5z"/>
<path d="M17763 7103 c-7 -15 -11 -29 -8 -31 9 -9 35 20 35 39 0 27 -13 23
-27 -8z"/>
<path d="M17790 5871 c0 -6 -7 -11 -15 -11 -27 0 -16 -20 13 -21 l27 -1 -30
-8 -30 -7 30 -5 30 -5 -32 -2 c-18 0 -33 -5 -33 -9 0 -5 12 -8 28 -7 15 1 18
0 7 -2 -35 -8 -41 -23 -9 -24 l29 -1 -27 -11 c-29 -11 -38 -27 -15 -27 7 0 23
7 35 16 20 14 24 14 44 0 12 -9 28 -16 35 -16 23 0 14 16 -14 27 l-28 11 30 1
c33 1 24 17 -15 24 -21 3 -19 5 10 7 l35 3 -35 7 -35 7 30 3 30 2 -30 8 -30 8
28 1 c28 1 39 21 12 21 -8 0 -15 5 -15 11 0 8 -5 8 -15 -1 -12 -10 -18 -10
-30 0 -10 9 -15 9 -15 1z"/>
<path d="M17326 5828 c-23 -32 -20 -74 6 -92 36 -25 80 11 63 52 -4 9 -8 26
-9 37 -1 29 -40 31 -60 3z m41 -14 c-3 -3 -12 -4 -19 -1 -8 3 -5 6 6 6 11 1
17 -2 13 -5z m3 -49 c0 -8 -7 -15 -15 -15 -8 0 -15 7 -15 15 0 8 7 15 15 15 8
0 15 -7 15 -15z"/>
<path d="M18849 5561 c-16 -16 -29 -39 -29 -51 0 -25 51 -80 74 -80 8 0 26 5
39 11 25 11 47 47 47 75 0 23 -55 74 -80 74 -12 0 -35 -13 -51 -29z m93 -8
c39 -35 11 -103 -43 -103 -35 0 -59 24 -59 57 0 55 62 83 102 46z"/>
<path d="M16939 5521 c-16 -16 -29 -39 -29 -51 0 -25 51 -80 74 -80 79 0 110
98 44 144 -33 23 -56 20 -89 -13z m93 -8 c22 -20 23 -61 1 -85 -34 -38 -103
-11 -103 40 0 54 62 81 102 45z"/>
<path d="M5347 3233 c-15 -14 -6 -23 23 -23 32 0 40 14 14 24 -20 8 -29 8 -37
-1z"/>
<path d="M11590 3000 c0 -5 5 -10 11 -10 5 0 7 5 4 10 -3 6 -8 10 -11 10 -2 0
-4 -4 -4 -10z"/>
<path d="M11625 2910 c3 -5 8 -10 11 -10 2 0 4 5 4 10 0 6 -5 10 -11 10 -5 0
-7 -4 -4 -10z"/>
<path d="M5815 670 c3 -5 8 -10 11 -10 2 0 4 5 4 10 0 6 -5 10 -11 10 -5 0 -7
-4 -4 -10z"/>
</g>
</svg>
